<mxfile host="app.diagrams.net" modified="2022-05-19T10:47:44.545Z" agent="5.0 (Windows NT 10.0; Win64; x64) AppleWebKit/537.36 (KHTML, like Gecko) Chrome/101.0.4951.67 Safari/537.36" etag="1VQeB9A7kbE2ao91rQQq" version="18.0.7" type="github">
  <diagram id="S6Bcsihgr4ScX3JhZ-Go" name="第 1 页">
    <mxGraphModel dx="3407" dy="-3261" grid="1" gridSize="10" guides="1" tooltips="1" connect="1" arrows="1" fold="1" page="1" pageScale="1" pageWidth="3300" pageHeight="4681" math="0" shadow="0">
      <root>
        <mxCell id="0" />
        <mxCell id="1" parent="0" />
        <mxCell id="-KqJtHb8l1TqhDkclPMP-7" value="" style="shape=curlyBracket;whiteSpace=wrap;html=1;rounded=1;rotation=90;" parent="1" vertex="1">
          <mxGeometry x="379.38" y="4633.13" width="38.71" height="598.75" as="geometry" />
        </mxCell>
        <mxCell id="-KqJtHb8l1TqhDkclPMP-8" value="&lt;font style=&quot;font-size: 24px;&quot;&gt;状态量&lt;/font&gt;" style="text;html=1;align=center;verticalAlign=middle;resizable=0;points=[];autosize=1;" parent="1" vertex="1">
          <mxGeometry x="360" y="4880" width="90" height="20" as="geometry" />
        </mxCell>
        <mxCell id="-KqJtHb8l1TqhDkclPMP-49" value="&lt;span style=&quot;font-size: 24px&quot;&gt;采样&lt;/span&gt;" style="shape=ext;double=1;rounded=1;whiteSpace=wrap;html=1;" parent="1" vertex="1">
          <mxGeometry x="309.99999999999994" y="7470" width="189.11" height="80" as="geometry" />
        </mxCell>
        <mxCell id="-KqJtHb8l1TqhDkclPMP-50" value="" style="shape=curlyBracket;whiteSpace=wrap;html=1;rounded=1;" parent="1" vertex="1">
          <mxGeometry x="506.22999999999996" y="7405" width="59" height="205" as="geometry" />
        </mxCell>
        <mxCell id="-KqJtHb8l1TqhDkclPMP-51" value="&lt;font style=&quot;font-size: 24px&quot;&gt;既要考虑 Reward 最大化，也要考虑动作覆盖率&lt;/font&gt;" style="text;html=1;align=center;verticalAlign=middle;resizable=0;points=[];autosize=1;" parent="1" vertex="1">
          <mxGeometry x="595.1800000000003" y="7400" width="520" height="20" as="geometry" />
        </mxCell>
        <mxCell id="-KqJtHb8l1TqhDkclPMP-53" value="&lt;span style=&quot;font-size: 24px&quot;&gt;从不同角度考虑的采样策略&lt;/span&gt;" style="text;html=1;align=center;verticalAlign=middle;resizable=0;points=[];autosize=1;" parent="1" vertex="1">
          <mxGeometry x="595.1800000000003" y="7470" width="300" height="20" as="geometry" />
        </mxCell>
        <mxCell id="-KqJtHb8l1TqhDkclPMP-54" value="&lt;span style=&quot;font-size: 24px&quot;&gt;探索和利用的平衡，学习策略&lt;/span&gt;" style="text;html=1;align=center;verticalAlign=middle;resizable=0;points=[];autosize=1;" parent="1" vertex="1">
          <mxGeometry x="592.6000000000004" y="7535" width="330" height="20" as="geometry" />
        </mxCell>
        <mxCell id="-KqJtHb8l1TqhDkclPMP-55" value="&lt;span style=&quot;font-size: 24px&quot;&gt;动作之间的约束关系，能否引入专家知识，减少动作空间&lt;/span&gt;" style="text;html=1;align=center;verticalAlign=middle;resizable=0;points=[];autosize=1;" parent="1" vertex="1">
          <mxGeometry x="597.4800000000002" y="7600" width="620" height="20" as="geometry" />
        </mxCell>
        <mxCell id="VSAtMSxViYo08qL-0U2J-135" style="edgeStyle=orthogonalEdgeStyle;curved=1;rounded=0;orthogonalLoop=1;jettySize=auto;html=1;exitX=1;exitY=0.5;exitDx=0;exitDy=0;entryX=0;entryY=0.5;entryDx=0;entryDy=0;fontSize=36;strokeWidth=2;" parent="1" source="VSAtMSxViYo08qL-0U2J-125" target="VSAtMSxViYo08qL-0U2J-132" edge="1">
          <mxGeometry relative="1" as="geometry" />
        </mxCell>
        <mxCell id="VSAtMSxViYo08qL-0U2J-137" style="edgeStyle=orthogonalEdgeStyle;curved=1;rounded=0;orthogonalLoop=1;jettySize=auto;html=1;exitX=1;exitY=0.5;exitDx=0;exitDy=0;entryX=0;entryY=0.5;entryDx=0;entryDy=0;fontSize=36;strokeWidth=2;" parent="1" source="VSAtMSxViYo08qL-0U2J-125" target="VSAtMSxViYo08qL-0U2J-136" edge="1">
          <mxGeometry relative="1" as="geometry" />
        </mxCell>
        <mxCell id="VSAtMSxViYo08qL-0U2J-125" value="贝叶斯优化器" style="rounded=1;whiteSpace=wrap;html=1;fontSize=36;strokeWidth=2;" parent="1" vertex="1">
          <mxGeometry x="2305.34" y="5496.02" width="250" height="60" as="geometry" />
        </mxCell>
        <mxCell id="VSAtMSxViYo08qL-0U2J-126" value="" style="shape=image;verticalLabelPosition=bottom;labelBackgroundColor=default;verticalAlign=top;aspect=fixed;imageAspect=0;image=data:image/png,iVBORw0KGgoAAAANSUhEUgAAAEAAAABACAYAAACqaXHeAAAAAXNSR0IArs4c6QAACVFJREFUeF7tWw1wHVUV/s7ue6VtbFXGYEHpjICgqIP8SVGqIANYhHZGrKAOjo4KMtq0SXPvfQlgmqFNsneTF5qhgLUVR8FSmRLFKrX+1cEBq0gr0yL1B0cRnFpEoEknbd7ucc6b3cx25yV5pZumyeTM7MzbfXd/znfPd+6559xLSEl3d/fJpVJpKTOfBuBsAO9Jt5lg57sBPENEz+VyudX19fX/Tn4/JU+stdcA+AaAUyaYktV+7osAbtZab45vGALA87wVRNRS7ZMmcjsiWqGUahUdygB0dXWdGwTBUymltgD4dRAEv53IyrquOw/ARwB8LKmH67rnLV++fAd1d3e/aXBw8DdJrjPzzcaYtRNZ8fS3e553ExEJvWPZnc/nLyFrrQdAx1fDMJxfKBQEkEknHR0dlziO81hCMSsA/BDAwujiVq31VZNO86TG1v4UwJXRpUcEgGcBnCUXmLndGNM8mQHwPK+NiJoiHfcIABwrHATBZU1NTdsmMwDt7e2Xuq77q6FhcAqAKQuYosCUD5hyghECx3oU8DxvVj6fzzc0NLx8rEae42YUsNbeBeCrkeIPENHtSqm/jzUQxwUA1trvA1icUnYbEV2jlOofSxDGHQBr7T0AvjKMkuu01l+etAC0tbWdmcvldgKYMZySY+2HxtUCfN9fycy3jtTDRPSwUuq6sbKCcQOgpaVlek1NzTMA3hEpJ+mp4VJvC7TWkpDJXMYNAN/3P8PMD1TQSJxeTfI6ET2olPp05toDGDcAPM/bRESfiJT6F4C3R79/D+DCtLLMfLExJvN03LgAsGrVqpPz+byYfCwrAdwmJ0R0HzN/QWt92NScmYvGmOVZW8G4AGCtvRrAjyOF+5hZ0nB3ANhDRPcyczczX0dEmxIKP6a1/vCkAMD3/VuZWXpdevwuZn6rBELM/KDjON9k5l8AuB/AAQA3RUoP9Pf317a2tvZlCcK4WECS/67rXhwEwbejNJwplUrrc7ncS8x8wHGcjzLzEO+J6Aql1M+PawA8z5s3mrOy1j4XDX/Pa63nJrJQV2mtt1prpZdrxA/4vv8UM58bKX271rpsOdWKtXax1vqh4dpnbgGRMhuJaKNSqjf9Yqk1Dg4Oxg5wQxAEza7rlic906ZNm7Ns2bK91trfyUggUaDrupfHDhLAZq31taMpv2bNmjf09fU1S7KTmU81xsgoU1EyBaBYLJ5RKpX+knjTLma+JwiCjc3Nzf+V61G98UdRm68x8wtEJEC9oLUuD4XW2vsAfJ6ZpVy1hYieiNrv1VrPGU4Za+18IlLMHIP0hNb6gyMBlikA1tolAHqGeeEGIlodhuGCuOYo5ahSqbRIzpn5Z8aYcn7eWiup+FUAtmmtL4spIf8FQfBO13XbAHwnLmpGVZ66CpXrbq11wzEDwPf9nzDzguiFUnGV6nJSpGduAPBZZt5njDnJ87y1RCQzvvu11jdGAHwJgIwGfzbGnGWtFQuQmp6MGguZ+QwARQCvADihwmTqkai486mR+C/Py9oChvKJzCy9OYuIxCoulZfV1tbO2Ldvn9QZLgKwSWv9Sd/3NzPzx5OBjud5C4lIKlT7tdazEyAJADJ1fpqZH6/Qs2sdx1kbhuGT8t9o/M8UgDT/xYPHH2it/RyAJVrrC6214gtOJKKlSqkea+0OAO8HYLTWVu7p6uqaFwRBmff9/f35mpqaW2JqMfMdxpivJ8v3zHw3ERW11n/zPO9yIpKhclT+ZwpAiv+/1FqL9z5MisXi20qlUtkjx0VXa+1eACcBkPBX4gHxAacD+Kv8dl137qFDh06PqzfMvN4YIxQpS09Pzwl1dXUH43Pf99cx8xcBjMr/TAFI8X+Z1np1GoAk34jofUqpXXEM4DjO1Y2NjY/KPZIcJSLht+M4zgfCMBwEIJYiFHhUKSWhdEWx1kr0KAmWUfmfKQDJkhoRnVYpoWmtLTu3mJ8AXiWi1+Q8CIILmpqa/pCgjazdmcPMi8IwfDqOFYT/WutzKmnv+/5FceRYDf8zAyDF/1e01m9Of2BnZ+dbwjBcB2BRxO1Zs2fPPiUIgj0xIMmAxff9ncx8jji9XC63cXBw8H/RM1/SWtdWAsBa2w6gUC3/MwMgyX8iWq+UGuJoxOn5AO4G8F4AJWZeYoy5VygRKzIwMPB4a2vroQSXW8IwLDtSY8wKa61YTvm5ROQrpYYWcSSs5h8A5lbL/8wASPI/SmWXp7oRn+uIqCPi5fYwDBsKhUKlIWw4Wg9d931fIkcZKWaknWHS/Kvlf2YAJPkfD3/FYvHEUqnULT1CRDKh+WN/f//DRzudtdZ+iIhuYOYzmfllY0w5VZYaFkeM/5NIH3UglOQ/M+8wxpzned4V4uAOHDiwM2nWo3bx62jQ0dHxxkKh8KrneU8S0flHwv9MLCDF/9uUUhLDH1NJmX9V43/8gUdtAUn+M/PZxpg/Vat9W1tbreu6i4lIjt4gCH5QKBT+We39CT+TXNRZ1fifGQBJ/gNYOX369JXJyCytTFLpeI6QbMPMEgv0uq7b29jYKHWDEcX3/TpmbgRwqjSsdvzPBIAK8//yc5n5Tsdx2pVS/5Hz0ZQGIFbz7gqaSozQy8y9xhhJkpSls7PzfGa+JQp5k7dVFf9n6gR7enpmDwwMGADSC9NSSnwLgKwyHxrvE/8/D2CDHFrrnS0tLU5NTc31AOQoB0spkSySgDEvcnbJv7cTkQAuM8gjkqP2Acm3RYmJegDvGuYrJL6PlU6u0DysuZTNZs6cWQaDiOL8QqVH9hKRp5TafkRaJxpnCkD8XGut5AKWApBJSyBKO47zvXiycyQfKxZ28ODB65lZACnPMCWVHgSB/3ocZvrdYwJA/BLxEQ0NDeVpbRYi84n9+/e/lmVsMaYAZKH0WD9jCoCppbJTa4WnFktPrRZPLZfflaiwNGmtJZkxacVaKyk0SaWJ7JZVGclFi1u01iNFYhMeGGutZKLjHWQPSTm6g5klti/LZNwxFuuW3jkmYbVsm5PytZSWhpasTcadYxV2jL2Yz+cvKGdhUyXsGLCtMlcPw3DrRLZ7x3GujGaT8U6xWJ1rpdo8VM/zfV9K1ismsrLVfrusQ5DUe3milbwp2kL73UmwY3w4LHa7rnujbJmNGxwGgFyMttLKvjqZ48t+wvKewgkskmWS49l8Pt9eX18vOYoh+T9snTVdsXyplgAAAABJRU5ErkJggg==;" parent="1" vertex="1">
          <mxGeometry x="2388.34" y="5400" width="84" height="84" as="geometry" />
        </mxCell>
        <mxCell id="VSAtMSxViYo08qL-0U2J-133" style="edgeStyle=orthogonalEdgeStyle;curved=1;rounded=0;orthogonalLoop=1;jettySize=auto;html=1;exitX=1;exitY=0.5;exitDx=0;exitDy=0;entryX=0;entryY=0.5;entryDx=0;entryDy=0;fontSize=36;strokeWidth=2;" parent="1" source="VSAtMSxViYo08qL-0U2J-130" target="VSAtMSxViYo08qL-0U2J-125" edge="1">
          <mxGeometry relative="1" as="geometry" />
        </mxCell>
        <mxCell id="VSAtMSxViYo08qL-0U2J-130" value="状态量" style="rounded=1;whiteSpace=wrap;html=1;fontSize=36;strokeWidth=2;" parent="1" vertex="1">
          <mxGeometry x="1995.34" y="5436.02" width="120" height="60" as="geometry" />
        </mxCell>
        <mxCell id="VSAtMSxViYo08qL-0U2J-134" style="edgeStyle=orthogonalEdgeStyle;curved=1;rounded=0;orthogonalLoop=1;jettySize=auto;html=1;exitX=1;exitY=0.5;exitDx=0;exitDy=0;entryX=0;entryY=0.5;entryDx=0;entryDy=0;fontSize=36;strokeWidth=2;" parent="1" source="VSAtMSxViYo08qL-0U2J-131" target="VSAtMSxViYo08qL-0U2J-125" edge="1">
          <mxGeometry relative="1" as="geometry" />
        </mxCell>
        <mxCell id="VSAtMSxViYo08qL-0U2J-131" value="&lt;span style=&quot;&quot;&gt;输出量&lt;/span&gt;" style="rounded=1;whiteSpace=wrap;html=1;fontSize=36;strokeWidth=2;" parent="1" vertex="1">
          <mxGeometry x="1995.34" y="5557" width="120" height="60" as="geometry" />
        </mxCell>
        <mxCell id="VSAtMSxViYo08qL-0U2J-139" style="edgeStyle=orthogonalEdgeStyle;curved=1;rounded=0;orthogonalLoop=1;jettySize=auto;html=1;exitX=1;exitY=0.5;exitDx=0;exitDy=0;entryX=0;entryY=0.5;entryDx=0;entryDy=0;fontSize=36;strokeWidth=2;" parent="1" source="VSAtMSxViYo08qL-0U2J-132" target="VSAtMSxViYo08qL-0U2J-138" edge="1">
          <mxGeometry relative="1" as="geometry" />
        </mxCell>
        <mxCell id="VSAtMSxViYo08qL-0U2J-132" value="&lt;span style=&quot;&quot;&gt;反馈量&lt;/span&gt;" style="rounded=1;whiteSpace=wrap;html=1;fontSize=36;strokeWidth=2;" parent="1" vertex="1">
          <mxGeometry x="2695.34" y="5437" width="150" height="60" as="geometry" />
        </mxCell>
        <mxCell id="VSAtMSxViYo08qL-0U2J-140" style="edgeStyle=orthogonalEdgeStyle;curved=1;rounded=0;orthogonalLoop=1;jettySize=auto;html=1;exitX=1;exitY=0.5;exitDx=0;exitDy=0;entryX=0;entryY=0.5;entryDx=0;entryDy=0;fontSize=36;strokeWidth=2;" parent="1" source="VSAtMSxViYo08qL-0U2J-136" target="VSAtMSxViYo08qL-0U2J-138" edge="1">
          <mxGeometry relative="1" as="geometry" />
        </mxCell>
        <mxCell id="VSAtMSxViYo08qL-0U2J-136" value="&lt;span style=&quot;&quot;&gt;不确定性&lt;/span&gt;" style="rounded=1;whiteSpace=wrap;html=1;fontSize=36;strokeWidth=2;" parent="1" vertex="1">
          <mxGeometry x="2692.2200000000003" y="5556.02" width="156.25" height="60" as="geometry" />
        </mxCell>
        <mxCell id="VSAtMSxViYo08qL-0U2J-138" value="&lt;span style=&quot;&quot;&gt;采样函数&lt;/span&gt;" style="rounded=1;whiteSpace=wrap;html=1;fontSize=36;strokeWidth=2;" parent="1" vertex="1">
          <mxGeometry x="2945.34" y="5496.02" width="156.25" height="60" as="geometry" />
        </mxCell>
        <mxCell id="VSAtMSxViYo08qL-0U2J-143" value="" style="endArrow=classic;html=1;rounded=0;fontSize=36;strokeWidth=2;curved=1;exitX=0.656;exitY=1.185;exitDx=0;exitDy=0;exitPerimeter=0;edgeStyle=orthogonalEdgeStyle;entryX=0.531;entryY=0.985;entryDx=0;entryDy=0;entryPerimeter=0;" parent="1" edge="1">
          <mxGeometry width="50" height="50" relative="1" as="geometry">
            <mxPoint x="2041.5799999999997" y="5712.75" as="sourcePoint" />
            <mxPoint x="3006.58" y="5692.75" as="targetPoint" />
            <Array as="points">
              <mxPoint x="2041.34" y="5821.75" />
              <mxPoint x="3006.34" y="5821.75" />
            </Array>
          </mxGeometry>
        </mxCell>
        <mxCell id="VSAtMSxViYo08qL-0U2J-144" value="带约束的多目标优化求解" style="text;html=1;align=center;verticalAlign=middle;resizable=0;points=[];autosize=1;strokeColor=none;fillColor=none;fontSize=36;" parent="1" vertex="1">
          <mxGeometry x="2305.34" y="5861.75" width="410" height="50" as="geometry" />
        </mxCell>
        <mxCell id="VSAtMSxViYo08qL-0U2J-145" value="Y&lt;sub&gt;1&lt;/sub&gt;Y&lt;sub&gt;2&lt;/sub&gt;Y&lt;sub&gt;3&lt;/sub&gt;....Ym" style="rounded=1;whiteSpace=wrap;html=1;fontSize=36;strokeWidth=2;" parent="1" vertex="1">
          <mxGeometry x="2867.42" y="5630" width="270" height="60" as="geometry" />
        </mxCell>
        <mxCell id="VSAtMSxViYo08qL-0U2J-161" value="X&lt;sub&gt;1&lt;/sub&gt;X&lt;sub&gt;2&lt;/sub&gt;X&lt;sub&gt;3&lt;/sub&gt;....Xn" style="rounded=1;whiteSpace=wrap;html=1;fontSize=36;strokeWidth=2;" parent="1" vertex="1">
          <mxGeometry x="1901.05" y="5650" width="270" height="60" as="geometry" />
        </mxCell>
        <mxCell id="VSAtMSxViYo08qL-0U2J-163" value="&lt;table border=&quot;1&quot; width=&quot;100%&quot; cellpadding=&quot;4&quot; style=&quot;width: 100% ; height: 100% ; border-collapse: collapse&quot;&gt;&lt;tbody&gt;&lt;tr style=&quot;background-color: #a7c942 ; color: #ffffff ; border: 1px solid #98bf21&quot;&gt;&lt;th&gt;&lt;span style=&quot;font-size: 24px&quot;&gt;时间&lt;/span&gt;&lt;/th&gt;&lt;th&gt;&lt;span style=&quot;font-size: 24px&quot;&gt;温度&lt;/span&gt;&lt;/th&gt;&lt;th&gt;&lt;span style=&quot;font-size: 24px&quot;&gt;天气&lt;/span&gt;&lt;/th&gt;&lt;/tr&gt;&lt;tr style=&quot;border: 1px solid #98bf21&quot;&gt;&lt;td&gt;&lt;font style=&quot;font-size: 24px&quot;&gt;8&lt;/font&gt;&lt;/td&gt;&lt;td&gt;&lt;font style=&quot;font-size: 24px&quot;&gt;28&lt;/font&gt;&lt;/td&gt;&lt;td&gt;&lt;span style=&quot;font-size: 24px&quot;&gt;晴&lt;/span&gt;&lt;/td&gt;&lt;/tr&gt;&lt;tr style=&quot;background-color: #eaf2d3 ; border: 1px solid #98bf21&quot;&gt;&lt;td&gt;&lt;font style=&quot;font-size: 24px&quot;&gt;10&lt;/font&gt;&lt;/td&gt;&lt;td&gt;&lt;font style=&quot;font-size: 24px&quot;&gt;30&lt;/font&gt;&lt;/td&gt;&lt;td&gt;&lt;span style=&quot;font-size: 24px&quot;&gt;阴&lt;/span&gt;&lt;/td&gt;&lt;/tr&gt;&lt;tr style=&quot;border: 1px solid #98bf21&quot;&gt;&lt;td&gt;&lt;font style=&quot;font-size: 24px&quot;&gt;14&lt;/font&gt;&lt;/td&gt;&lt;td&gt;&lt;font style=&quot;font-size: 24px&quot;&gt;35&lt;/font&gt;&lt;/td&gt;&lt;td&gt;&lt;font style=&quot;font-size: 24px&quot;&gt;晴&lt;/font&gt;&lt;/td&gt;&lt;/tr&gt;&lt;tr style=&quot;background-color: #eaf2d3 ; border: 1px solid #98bf21&quot;&gt;&lt;td&gt;&lt;font style=&quot;font-size: 24px&quot;&gt;16&lt;/font&gt;&lt;/td&gt;&lt;td&gt;&lt;font style=&quot;font-size: 24px&quot;&gt;32&lt;/font&gt;&lt;/td&gt;&lt;td&gt;&lt;font style=&quot;font-size: 24px&quot;&gt;雨&lt;/font&gt;&lt;/td&gt;&lt;/tr&gt;&lt;tr&gt;&lt;td&gt;&lt;font style=&quot;font-size: 24px&quot;&gt;......&lt;/font&gt;&lt;/td&gt;&lt;td&gt;&lt;font style=&quot;font-size: 24px&quot;&gt;......&lt;/font&gt;&lt;/td&gt;&lt;td&gt;&lt;font style=&quot;font-size: 24px&quot;&gt;......&lt;/font&gt;&lt;/td&gt;&lt;/tr&gt;&lt;/tbody&gt;&lt;/table&gt;" style="text;html=1;strokeColor=#c0c0c0;fillColor=#ffffff;overflow=fill;rounded=0;align=center;" parent="1" vertex="1">
          <mxGeometry x="59.999999999999886" y="4963.540000000001" width="280" height="310" as="geometry" />
        </mxCell>
        <mxCell id="VSAtMSxViYo08qL-0U2J-164" value="" style="shape=curlyBracket;whiteSpace=wrap;html=1;rounded=1;rotation=90;" parent="1" vertex="1">
          <mxGeometry x="853.14" y="4814.46" width="45.81" height="235" as="geometry" />
        </mxCell>
        <mxCell id="VSAtMSxViYo08qL-0U2J-165" value="&lt;font style=&quot;font-size: 24px;&quot;&gt;t 角度值&lt;/font&gt;" style="text;html=1;align=center;verticalAlign=middle;resizable=0;points=[];autosize=1;" parent="1" vertex="1">
          <mxGeometry x="836.2700000000001" y="4879.46" width="100" height="20" as="geometry" />
        </mxCell>
        <mxCell id="VSAtMSxViYo08qL-0U2J-166" value="&lt;table border=&quot;1&quot; width=&quot;100%&quot; cellpadding=&quot;4&quot; style=&quot;width: 100% ; height: 100% ; border-collapse: collapse&quot;&gt;&lt;tbody style=&quot;font-size: 24px&quot;&gt;&lt;tr style=&quot;background-color: #a7c942 ; color: #ffffff ; border: 1px solid #98bf21&quot;&gt;&lt;th&gt;&lt;span style=&quot;font-size: 24px&quot;&gt;S&lt;sub&gt;1&lt;/sub&gt;&lt;/span&gt;&lt;/th&gt;&lt;th&gt;......&lt;/th&gt;&lt;th&gt;&lt;span style=&quot;font-size: 24px&quot;&gt;S&lt;sub&gt;n&lt;/sub&gt;&lt;/span&gt;&lt;/th&gt;&lt;/tr&gt;&lt;tr style=&quot;border: 1px solid #98bf21&quot;&gt;&lt;td&gt;&lt;span style=&quot;font-size: 24px&quot;&gt;5&lt;/span&gt;&lt;/td&gt;&lt;td&gt;&lt;span style=&quot;font-size: 24px&quot;&gt;2&lt;/span&gt;&lt;/td&gt;&lt;td&gt;&lt;span style=&quot;font-size: 24px&quot;&gt;-2&lt;/span&gt;&lt;/td&gt;&lt;/tr&gt;&lt;tr style=&quot;background-color: #eaf2d3 ; border: 1px solid #98bf21&quot;&gt;&lt;td&gt;&lt;span style=&quot;font-size: 24px&quot;&gt;4&lt;/span&gt;&lt;/td&gt;&lt;td&gt;&lt;font style=&quot;font-size: 24px&quot;&gt;3&lt;/font&gt;&lt;/td&gt;&lt;td&gt;&lt;span style=&quot;font-size: 24px&quot;&gt;2&lt;/span&gt;&lt;/td&gt;&lt;/tr&gt;&lt;tr style=&quot;border: 1px solid #98bf21&quot;&gt;&lt;td&gt;&lt;font style=&quot;font-size: 24px&quot;&gt;1&lt;/font&gt;&lt;/td&gt;&lt;td&gt;&lt;font style=&quot;font-size: 24px&quot;&gt;5&lt;/font&gt;&lt;/td&gt;&lt;td&gt;&lt;span style=&quot;font-size: 24px&quot;&gt;-3&lt;/span&gt;&lt;/td&gt;&lt;/tr&gt;&lt;tr style=&quot;background-color: #eaf2d3 ; border: 1px solid #98bf21&quot;&gt;&lt;td&gt;&lt;span style=&quot;font-size: 24px&quot;&gt;3&lt;/span&gt;&lt;/td&gt;&lt;td&gt;&lt;font style=&quot;font-size: 24px&quot;&gt;2&lt;/font&gt;&lt;/td&gt;&lt;td&gt;&lt;span style=&quot;font-size: 24px&quot;&gt;4&lt;/span&gt;&lt;/td&gt;&lt;/tr&gt;&lt;tr&gt;&lt;td&gt;......&lt;/td&gt;&lt;td&gt;......&lt;/td&gt;&lt;td&gt;......&lt;/td&gt;&lt;/tr&gt;&lt;/tbody&gt;&lt;/table&gt;" style="text;html=1;strokeColor=#c0c0c0;fillColor=#ffffff;overflow=fill;rounded=0;align=center;" parent="1" vertex="1">
          <mxGeometry x="730.0000000000001" y="4963.000000000001" width="280" height="310" as="geometry" />
        </mxCell>
        <mxCell id="VSAtMSxViYo08qL-0U2J-167" value="&lt;table border=&quot;1&quot; width=&quot;100%&quot; cellpadding=&quot;4&quot; style=&quot;width: 100% ; height: 100% ; border-collapse: collapse&quot;&gt;&lt;tbody style=&quot;font-size: 24px&quot;&gt;&lt;tr style=&quot;background-color: #a7c942 ; color: #ffffff ; border: 1px solid #98bf21&quot;&gt;&lt;th&gt;&lt;span style=&quot;font-size: 24px&quot;&gt;S&lt;sub&gt;1&lt;/sub&gt;&#39;&lt;/span&gt;&lt;/th&gt;&lt;th&gt;&lt;span style=&quot;font-size: 24px&quot;&gt;......&lt;/span&gt;&lt;/th&gt;&lt;th&gt;&lt;span style=&quot;font-size: 24px&quot;&gt;S&lt;sub&gt;n&lt;/sub&gt;&#39;&lt;/span&gt;&lt;/th&gt;&lt;/tr&gt;&lt;tr style=&quot;border: 1px solid #98bf21&quot;&gt;&lt;td&gt;&lt;span style=&quot;font-size: 24px&quot;&gt;3&lt;/span&gt;&lt;/td&gt;&lt;td&gt;&lt;span style=&quot;font-size: 24px&quot;&gt;-5&lt;/span&gt;&lt;/td&gt;&lt;td&gt;&lt;span style=&quot;font-size: 24px&quot;&gt;0&lt;/span&gt;&lt;/td&gt;&lt;/tr&gt;&lt;tr style=&quot;background-color: #eaf2d3 ; border: 1px solid #98bf21&quot;&gt;&lt;td&gt;&lt;font style=&quot;font-size: 24px&quot;&gt;0&lt;/font&gt;&lt;/td&gt;&lt;td&gt;&lt;font style=&quot;font-size: 24px&quot;&gt;-3&lt;/font&gt;&lt;/td&gt;&lt;td&gt;&lt;span style=&quot;font-size: 24px&quot;&gt;1&lt;/span&gt;&lt;/td&gt;&lt;/tr&gt;&lt;tr style=&quot;border: 1px solid #98bf21&quot;&gt;&lt;td&gt;&lt;font style=&quot;font-size: 24px&quot;&gt;1&lt;/font&gt;&lt;/td&gt;&lt;td&gt;&lt;font style=&quot;font-size: 24px&quot;&gt;3&lt;/font&gt;&lt;/td&gt;&lt;td&gt;&lt;span style=&quot;font-size: 24px&quot;&gt;2&lt;/span&gt;&lt;/td&gt;&lt;/tr&gt;&lt;tr style=&quot;background-color: #eaf2d3 ; border: 1px solid #98bf21&quot;&gt;&lt;td&gt;&lt;span style=&quot;font-size: 24px&quot;&gt;0&lt;/span&gt;&lt;/td&gt;&lt;td&gt;&lt;font style=&quot;font-size: 24px&quot;&gt;-1&lt;/font&gt;&lt;/td&gt;&lt;td&gt;&lt;span style=&quot;font-size: 24px&quot;&gt;-4&lt;/span&gt;&lt;/td&gt;&lt;/tr&gt;&lt;tr&gt;&lt;td&gt;......&lt;/td&gt;&lt;td&gt;......&lt;/td&gt;&lt;td&gt;......&lt;/td&gt;&lt;/tr&gt;&lt;/tbody&gt;&lt;/table&gt;" style="text;html=1;strokeColor=#c0c0c0;fillColor=#ffffff;overflow=fill;rounded=0;align=center;" parent="1" vertex="1">
          <mxGeometry x="1010" y="4963.000000000001" width="280" height="310" as="geometry" />
        </mxCell>
        <mxCell id="VSAtMSxViYo08qL-0U2J-168" value="&lt;table border=&quot;1&quot; width=&quot;100%&quot; cellpadding=&quot;4&quot; style=&quot;width: 100% ; height: 100% ; border-collapse: collapse&quot;&gt;&lt;tbody style=&quot;font-size: 24px&quot;&gt;&lt;tr style=&quot;background-color: #a7c942 ; color: #ffffff ; border: 1px solid #98bf21&quot;&gt;&lt;th&gt;P1&lt;/th&gt;&lt;/tr&gt;&lt;tr style=&quot;border: 1px solid #98bf21&quot;&gt;&lt;td&gt;&lt;span style=&quot;font-size: 24px&quot;&gt;500&lt;/span&gt;&lt;/td&gt;&lt;/tr&gt;&lt;tr style=&quot;background-color: #eaf2d3 ; border: 1px solid #98bf21&quot;&gt;&lt;td&gt;400&lt;/td&gt;&lt;/tr&gt;&lt;tr style=&quot;border: 1px solid #98bf21&quot;&gt;&lt;td&gt;600&lt;/td&gt;&lt;/tr&gt;&lt;tr style=&quot;background-color: #eaf2d3 ; border: 1px solid #98bf21&quot;&gt;&lt;td&gt;380&lt;/td&gt;&lt;/tr&gt;&lt;tr&gt;&lt;td&gt;......&lt;/td&gt;&lt;/tr&gt;&lt;/tbody&gt;&lt;/table&gt;" style="text;html=1;strokeColor=#c0c0c0;fillColor=#ffffff;overflow=fill;rounded=0;align=center;" parent="1" vertex="1">
          <mxGeometry x="1290" y="4963.540000000001" width="110" height="310" as="geometry" />
        </mxCell>
        <mxCell id="VSAtMSxViYo08qL-0U2J-171" value="" style="shape=curlyBracket;whiteSpace=wrap;html=1;rounded=1;rotation=90;" parent="1" vertex="1">
          <mxGeometry x="1385.06" y="4865.71" width="38.49" height="132.5" as="geometry" />
        </mxCell>
        <mxCell id="VSAtMSxViYo08qL-0U2J-174" value="&lt;table border=&quot;1&quot; width=&quot;100%&quot; cellpadding=&quot;4&quot; style=&quot;width: 100% ; height: 100% ; border-collapse: collapse&quot;&gt;&lt;tbody&gt;&lt;tr style=&quot;background-color: #a7c942 ; color: #ffffff ; border: 1px solid #98bf21&quot;&gt;&lt;th&gt;&lt;span style=&quot;font-size: 24px&quot;&gt;I&lt;sub&gt;1&lt;/sub&gt;&lt;/span&gt;&lt;/th&gt;&lt;th&gt;&lt;span style=&quot;font-size: 24px&quot;&gt;I&lt;sub&gt;2&lt;/sub&gt;&lt;/span&gt;&lt;/th&gt;&lt;th&gt;&lt;span style=&quot;font-size: 24px;&quot;&gt;I&lt;sub&gt;3&lt;/sub&gt;&lt;/span&gt;&lt;/th&gt;&lt;/tr&gt;&lt;tr style=&quot;border: 1px solid #98bf21&quot;&gt;&lt;td&gt;&lt;span style=&quot;font-size: 24px;&quot;&gt;...&lt;/span&gt;&lt;/td&gt;&lt;td&gt;&lt;font style=&quot;font-size: 24px&quot;&gt;...&lt;/font&gt;&lt;/td&gt;&lt;td&gt;&lt;span style=&quot;font-size: 24px&quot;&gt;...&lt;/span&gt;&lt;/td&gt;&lt;/tr&gt;&lt;tr style=&quot;background-color: #eaf2d3 ; border: 1px solid #98bf21&quot;&gt;&lt;td&gt;&lt;font style=&quot;font-size: 24px&quot;&gt;...&lt;/font&gt;&lt;/td&gt;&lt;td&gt;&lt;font style=&quot;font-size: 24px&quot;&gt;...&lt;/font&gt;&lt;/td&gt;&lt;td&gt;&lt;span style=&quot;font-size: 24px&quot;&gt;...&lt;/span&gt;&lt;/td&gt;&lt;/tr&gt;&lt;tr style=&quot;border: 1px solid #98bf21&quot;&gt;&lt;td&gt;&lt;font style=&quot;font-size: 24px&quot;&gt;...&lt;/font&gt;&lt;/td&gt;&lt;td&gt;&lt;font style=&quot;font-size: 24px&quot;&gt;...&lt;/font&gt;&lt;/td&gt;&lt;td&gt;&lt;font style=&quot;font-size: 24px&quot;&gt;...&lt;/font&gt;&lt;/td&gt;&lt;/tr&gt;&lt;tr style=&quot;background-color: #eaf2d3 ; border: 1px solid #98bf21&quot;&gt;&lt;td&gt;&lt;font style=&quot;font-size: 24px&quot;&gt;...&lt;/font&gt;&lt;/td&gt;&lt;td&gt;&lt;font style=&quot;font-size: 24px&quot;&gt;...&lt;/font&gt;&lt;/td&gt;&lt;td&gt;&lt;font style=&quot;font-size: 24px&quot;&gt;...&lt;/font&gt;&lt;/td&gt;&lt;/tr&gt;&lt;tr&gt;&lt;td&gt;&lt;font style=&quot;font-size: 24px&quot;&gt;......&lt;/font&gt;&lt;/td&gt;&lt;td&gt;&lt;font style=&quot;font-size: 24px&quot;&gt;......&lt;/font&gt;&lt;/td&gt;&lt;td&gt;&lt;font style=&quot;font-size: 24px&quot;&gt;......&lt;/font&gt;&lt;/td&gt;&lt;/tr&gt;&lt;/tbody&gt;&lt;/table&gt;" style="text;html=1;strokeColor=#c0c0c0;fillColor=#ffffff;overflow=fill;rounded=0;align=center;" parent="1" vertex="1">
          <mxGeometry x="340" y="4964.08" width="280" height="308.46" as="geometry" />
        </mxCell>
        <mxCell id="VSAtMSxViYo08qL-0U2J-177" value="" style="shape=curlyBracket;whiteSpace=wrap;html=1;rounded=1;rotation=90;" parent="1" vertex="1">
          <mxGeometry x="1126.7199999999998" y="4814.46" width="45.81" height="235" as="geometry" />
        </mxCell>
        <mxCell id="VSAtMSxViYo08qL-0U2J-178" value="&lt;font style=&quot;font-size: 24px;&quot;&gt;t+1 角度值&lt;/font&gt;" style="text;html=1;align=center;verticalAlign=middle;resizable=0;points=[];autosize=1;" parent="1" vertex="1">
          <mxGeometry x="1094.8500000000001" y="4879.46" width="130" height="20" as="geometry" />
        </mxCell>
        <mxCell id="VSAtMSxViYo08qL-0U2J-179" value="&lt;table border=&quot;1&quot; width=&quot;100%&quot; cellpadding=&quot;4&quot; style=&quot;width: 100% ; height: 100% ; border-collapse: collapse&quot;&gt;&lt;tbody style=&quot;font-size: 24px&quot;&gt;&lt;tr style=&quot;background-color: #a7c942 ; color: #ffffff ; border: 1px solid #98bf21&quot;&gt;&lt;th&gt;P2&lt;/th&gt;&lt;/tr&gt;&lt;tr style=&quot;border: 1px solid #98bf21&quot;&gt;&lt;td&gt;&lt;span style=&quot;font-size: 24px&quot;&gt;500&lt;/span&gt;&lt;/td&gt;&lt;/tr&gt;&lt;tr style=&quot;background-color: #eaf2d3 ; border: 1px solid #98bf21&quot;&gt;&lt;td&gt;400&lt;/td&gt;&lt;/tr&gt;&lt;tr style=&quot;border: 1px solid #98bf21&quot;&gt;&lt;td&gt;600&lt;/td&gt;&lt;/tr&gt;&lt;tr style=&quot;background-color: #eaf2d3 ; border: 1px solid #98bf21&quot;&gt;&lt;td&gt;380&lt;/td&gt;&lt;/tr&gt;&lt;tr&gt;&lt;td&gt;......&lt;/td&gt;&lt;/tr&gt;&lt;/tbody&gt;&lt;/table&gt;" style="text;html=1;strokeColor=#c0c0c0;fillColor=#ffffff;overflow=fill;rounded=0;align=center;" parent="1" vertex="1">
          <mxGeometry x="1400" y="4963.540000000001" width="110" height="310" as="geometry" />
        </mxCell>
        <mxCell id="VSAtMSxViYo08qL-0U2J-180" value="&lt;font style=&quot;font-size: 24px;&quot;&gt;发电量&lt;/font&gt;" style="text;html=1;align=center;verticalAlign=middle;resizable=0;points=[];autosize=1;" parent="1" vertex="1">
          <mxGeometry x="1362.6200000000001" y="4879.46" width="90" height="20" as="geometry" />
        </mxCell>
        <mxCell id="VSAtMSxViYo08qL-0U2J-181" value="" style="shape=flexArrow;endArrow=classic;html=1;rounded=0;fontSize=24;strokeWidth=2;curved=1;endWidth=27.5;endSize=12.389473684210527;width=15.789473684210527;" parent="1" edge="1">
          <mxGeometry width="50" height="50" relative="1" as="geometry">
            <mxPoint x="797.54" y="5302.75" as="sourcePoint" />
            <mxPoint x="797.89" y="5402.75" as="targetPoint" />
          </mxGeometry>
        </mxCell>
        <mxCell id="VSAtMSxViYo08qL-0U2J-182" value="&lt;font style=&quot;font-size: 24px&quot;&gt;检索计算相似度&lt;/font&gt;" style="shape=ext;double=1;rounded=1;whiteSpace=wrap;html=1;" parent="1" vertex="1">
          <mxGeometry x="699.0000000000002" y="5420" width="199.95" height="80" as="geometry" />
        </mxCell>
        <mxCell id="VSAtMSxViYo08qL-0U2J-187" style="edgeStyle=orthogonalEdgeStyle;curved=1;rounded=0;orthogonalLoop=1;jettySize=auto;html=1;exitX=1;exitY=0.5;exitDx=0;exitDy=0;entryX=0;entryY=0.5;entryDx=0;entryDy=0;fontSize=24;strokeWidth=2;" parent="1" source="VSAtMSxViYo08qL-0U2J-183" target="VSAtMSxViYo08qL-0U2J-186" edge="1">
          <mxGeometry relative="1" as="geometry" />
        </mxCell>
        <mxCell id="VSAtMSxViYo08qL-0U2J-183" value="&lt;span style=&quot;font-size: 24px&quot;&gt;获取当前状态量&lt;/span&gt;" style="shape=ext;double=1;rounded=1;whiteSpace=wrap;html=1;" parent="1" vertex="1">
          <mxGeometry x="127.51000000000022" y="5420" width="189.11" height="80" as="geometry" />
        </mxCell>
        <mxCell id="VSAtMSxViYo08qL-0U2J-185" value="" style="shape=flexArrow;endArrow=classic;html=1;rounded=0;fontSize=24;strokeWidth=2;curved=1;endWidth=27.5;endSize=12.389473684210527;width=15.789473684210527;" parent="1" edge="1">
          <mxGeometry width="50" height="50" relative="1" as="geometry">
            <mxPoint x="797.5499999999996" y="5520" as="sourcePoint" />
            <mxPoint x="797.9000000000004" y="5620" as="targetPoint" />
          </mxGeometry>
        </mxCell>
        <mxCell id="VSAtMSxViYo08qL-0U2J-188" style="edgeStyle=orthogonalEdgeStyle;curved=1;rounded=0;orthogonalLoop=1;jettySize=auto;html=1;exitX=1;exitY=0.5;exitDx=0;exitDy=0;entryX=0;entryY=0.5;entryDx=0;entryDy=0;fontSize=24;strokeWidth=2;" parent="1" source="VSAtMSxViYo08qL-0U2J-186" target="VSAtMSxViYo08qL-0U2J-182" edge="1">
          <mxGeometry relative="1" as="geometry" />
        </mxCell>
        <mxCell id="VSAtMSxViYo08qL-0U2J-186" value="&lt;span style=&quot;font-size: 24px&quot;&gt;与所有历史数据计算相似度&lt;/span&gt;" style="shape=ext;double=1;rounded=1;whiteSpace=wrap;html=1;" parent="1" vertex="1">
          <mxGeometry x="411.62000000000023" y="5420" width="189.11" height="80" as="geometry" />
        </mxCell>
        <mxCell id="VSAtMSxViYo08qL-0U2J-189" value="&lt;table border=&quot;1&quot; width=&quot;100%&quot; cellpadding=&quot;4&quot; style=&quot;width: 100% ; height: 100% ; border-collapse: collapse&quot;&gt;&lt;tbody style=&quot;font-size: 24px&quot;&gt;&lt;tr style=&quot;background-color: #a7c942 ; color: #ffffff ; border: 1px solid #98bf21&quot;&gt;&lt;th&gt;I&lt;sub&gt;4&lt;/sub&gt;&lt;/th&gt;&lt;/tr&gt;&lt;tr style=&quot;border: 1px solid #98bf21&quot;&gt;&lt;td&gt;&lt;span style=&quot;font-size: 24px&quot;&gt;500&lt;/span&gt;&lt;/td&gt;&lt;/tr&gt;&lt;tr style=&quot;background-color: #eaf2d3 ; border: 1px solid #98bf21&quot;&gt;&lt;td&gt;400&lt;/td&gt;&lt;/tr&gt;&lt;tr style=&quot;border: 1px solid #98bf21&quot;&gt;&lt;td&gt;600&lt;/td&gt;&lt;/tr&gt;&lt;tr style=&quot;background-color: #eaf2d3 ; border: 1px solid #98bf21&quot;&gt;&lt;td&gt;380&lt;/td&gt;&lt;/tr&gt;&lt;tr&gt;&lt;td&gt;......&lt;/td&gt;&lt;/tr&gt;&lt;/tbody&gt;&lt;/table&gt;" style="text;html=1;strokeColor=#c0c0c0;fillColor=#ffffff;overflow=fill;rounded=0;align=center;" parent="1" vertex="1">
          <mxGeometry x="620" y="4962.540000000001" width="110" height="310" as="geometry" />
        </mxCell>
        <mxCell id="VSAtMSxViYo08qL-0U2J-190" value="时间绝对匹配，天气决定匹配，&lt;br&gt;其它归一化到0-1之间，计算欧式距离" style="text;html=1;align=center;verticalAlign=middle;resizable=0;points=[];autosize=1;strokeColor=none;fillColor=none;fontSize=24;" parent="1" vertex="1">
          <mxGeometry x="1021.27" y="5430" width="410" height="60" as="geometry" />
        </mxCell>
        <mxCell id="VSAtMSxViYo08qL-0U2J-191" value="" style="shape=curlyBracket;whiteSpace=wrap;html=1;rounded=1;rotation=90;" parent="1" vertex="1">
          <mxGeometry x="379.38" y="5430" width="38.71" height="598.75" as="geometry" />
        </mxCell>
        <mxCell id="VSAtMSxViYo08qL-0U2J-192" value="&lt;font style=&quot;font-size: 24px;&quot;&gt;状态量&lt;/font&gt;" style="text;html=1;align=center;verticalAlign=middle;resizable=0;points=[];autosize=1;" parent="1" vertex="1">
          <mxGeometry x="360" y="5676.87" width="90" height="20" as="geometry" />
        </mxCell>
        <mxCell id="VSAtMSxViYo08qL-0U2J-194" value="" style="shape=curlyBracket;whiteSpace=wrap;html=1;rounded=1;rotation=90;" parent="1" vertex="1">
          <mxGeometry x="853.14" y="5611.33" width="45.81" height="235" as="geometry" />
        </mxCell>
        <mxCell id="VSAtMSxViYo08qL-0U2J-195" value="&lt;font style=&quot;font-size: 24px;&quot;&gt;t 角度值&lt;/font&gt;" style="text;html=1;align=center;verticalAlign=middle;resizable=0;points=[];autosize=1;" parent="1" vertex="1">
          <mxGeometry x="836.2700000000001" y="5676.33" width="100" height="20" as="geometry" />
        </mxCell>
        <mxCell id="VSAtMSxViYo08qL-0U2J-196" value="&lt;table border=&quot;1&quot; width=&quot;100%&quot; cellpadding=&quot;4&quot; style=&quot;width: 100% ; height: 100% ; border-collapse: collapse&quot;&gt;&lt;tbody style=&quot;font-size: 24px&quot;&gt;&lt;tr style=&quot;background-color: #a7c942 ; color: #ffffff ; border: 1px solid #98bf21&quot;&gt;&lt;th&gt;&lt;span style=&quot;font-size: 24px&quot;&gt;S&lt;sub&gt;1&lt;/sub&gt;&lt;/span&gt;&lt;/th&gt;&lt;th&gt;......&lt;/th&gt;&lt;th&gt;&lt;span style=&quot;font-size: 24px&quot;&gt;S&lt;sub&gt;n&lt;/sub&gt;&lt;/span&gt;&lt;/th&gt;&lt;/tr&gt;&lt;tr style=&quot;border: 1px solid #98bf21&quot;&gt;&lt;td&gt;&lt;span style=&quot;font-size: 24px&quot;&gt;5&lt;/span&gt;&lt;/td&gt;&lt;td&gt;&lt;span style=&quot;font-size: 24px&quot;&gt;2&lt;/span&gt;&lt;/td&gt;&lt;td&gt;&lt;span style=&quot;font-size: 24px&quot;&gt;-2&lt;/span&gt;&lt;/td&gt;&lt;/tr&gt;&lt;tr style=&quot;background-color: #eaf2d3 ; border: 1px solid #98bf21&quot;&gt;&lt;td&gt;&lt;span style=&quot;font-size: 24px&quot;&gt;4&lt;/span&gt;&lt;/td&gt;&lt;td&gt;&lt;font style=&quot;font-size: 24px&quot;&gt;3&lt;/font&gt;&lt;/td&gt;&lt;td&gt;&lt;span style=&quot;font-size: 24px&quot;&gt;2&lt;/span&gt;&lt;/td&gt;&lt;/tr&gt;&lt;tr style=&quot;border: 1px solid #98bf21&quot;&gt;&lt;td&gt;&lt;font style=&quot;font-size: 24px&quot;&gt;1&lt;/font&gt;&lt;/td&gt;&lt;td&gt;&lt;font style=&quot;font-size: 24px&quot;&gt;5&lt;/font&gt;&lt;/td&gt;&lt;td&gt;&lt;span style=&quot;font-size: 24px&quot;&gt;-3&lt;/span&gt;&lt;/td&gt;&lt;/tr&gt;&lt;tr style=&quot;background-color: #eaf2d3 ; border: 1px solid #98bf21&quot;&gt;&lt;td&gt;&lt;span style=&quot;font-size: 24px&quot;&gt;3&lt;/span&gt;&lt;/td&gt;&lt;td&gt;&lt;font style=&quot;font-size: 24px&quot;&gt;2&lt;/font&gt;&lt;/td&gt;&lt;td&gt;&lt;span style=&quot;font-size: 24px&quot;&gt;4&lt;/span&gt;&lt;/td&gt;&lt;/tr&gt;&lt;tr&gt;&lt;td&gt;......&lt;/td&gt;&lt;td&gt;......&lt;/td&gt;&lt;td&gt;......&lt;/td&gt;&lt;/tr&gt;&lt;/tbody&gt;&lt;/table&gt;" style="text;html=1;strokeColor=#c0c0c0;fillColor=#ffffff;overflow=fill;rounded=0;align=center;" parent="1" vertex="1">
          <mxGeometry x="730.0000000000001" y="5759.870000000001" width="280" height="310" as="geometry" />
        </mxCell>
        <mxCell id="VSAtMSxViYo08qL-0U2J-197" value="&lt;table border=&quot;1&quot; width=&quot;100%&quot; cellpadding=&quot;4&quot; style=&quot;width: 100% ; height: 100% ; border-collapse: collapse&quot;&gt;&lt;tbody style=&quot;font-size: 24px&quot;&gt;&lt;tr style=&quot;background-color: #a7c942 ; color: #ffffff ; border: 1px solid #98bf21&quot;&gt;&lt;th&gt;&lt;span style=&quot;font-size: 24px&quot;&gt;S&lt;sub&gt;1&lt;/sub&gt;&#39;&lt;/span&gt;&lt;/th&gt;&lt;th&gt;&lt;span style=&quot;font-size: 24px&quot;&gt;......&lt;/span&gt;&lt;/th&gt;&lt;th&gt;&lt;span style=&quot;font-size: 24px&quot;&gt;S&lt;sub&gt;n&lt;/sub&gt;&#39;&lt;/span&gt;&lt;/th&gt;&lt;/tr&gt;&lt;tr style=&quot;border: 1px solid #98bf21&quot;&gt;&lt;td&gt;&lt;span style=&quot;font-size: 24px&quot;&gt;3&lt;/span&gt;&lt;/td&gt;&lt;td&gt;&lt;span style=&quot;font-size: 24px&quot;&gt;-5&lt;/span&gt;&lt;/td&gt;&lt;td&gt;&lt;span style=&quot;font-size: 24px&quot;&gt;0&lt;/span&gt;&lt;/td&gt;&lt;/tr&gt;&lt;tr style=&quot;background-color: #eaf2d3 ; border: 1px solid #98bf21&quot;&gt;&lt;td&gt;&lt;font style=&quot;font-size: 24px&quot;&gt;0&lt;/font&gt;&lt;/td&gt;&lt;td&gt;&lt;font style=&quot;font-size: 24px&quot;&gt;-3&lt;/font&gt;&lt;/td&gt;&lt;td&gt;&lt;span style=&quot;font-size: 24px&quot;&gt;1&lt;/span&gt;&lt;/td&gt;&lt;/tr&gt;&lt;tr style=&quot;border: 1px solid #98bf21&quot;&gt;&lt;td&gt;&lt;font style=&quot;font-size: 24px&quot;&gt;1&lt;/font&gt;&lt;/td&gt;&lt;td&gt;&lt;font style=&quot;font-size: 24px&quot;&gt;3&lt;/font&gt;&lt;/td&gt;&lt;td&gt;&lt;span style=&quot;font-size: 24px&quot;&gt;2&lt;/span&gt;&lt;/td&gt;&lt;/tr&gt;&lt;tr style=&quot;background-color: #eaf2d3 ; border: 1px solid #98bf21&quot;&gt;&lt;td&gt;&lt;span style=&quot;font-size: 24px&quot;&gt;0&lt;/span&gt;&lt;/td&gt;&lt;td&gt;&lt;font style=&quot;font-size: 24px&quot;&gt;-1&lt;/font&gt;&lt;/td&gt;&lt;td&gt;&lt;span style=&quot;font-size: 24px&quot;&gt;-4&lt;/span&gt;&lt;/td&gt;&lt;/tr&gt;&lt;tr&gt;&lt;td&gt;......&lt;/td&gt;&lt;td&gt;......&lt;/td&gt;&lt;td&gt;......&lt;/td&gt;&lt;/tr&gt;&lt;/tbody&gt;&lt;/table&gt;" style="text;html=1;strokeColor=#c0c0c0;fillColor=#ffffff;overflow=fill;rounded=0;align=center;" parent="1" vertex="1">
          <mxGeometry x="1010" y="5759.870000000001" width="280" height="310" as="geometry" />
        </mxCell>
        <mxCell id="VSAtMSxViYo08qL-0U2J-198" value="&lt;table border=&quot;1&quot; width=&quot;100%&quot; cellpadding=&quot;4&quot; style=&quot;width: 100% ; height: 100% ; border-collapse: collapse&quot;&gt;&lt;tbody style=&quot;font-size: 24px&quot;&gt;&lt;tr style=&quot;background-color: #a7c942 ; color: #ffffff ; border: 1px solid #98bf21&quot;&gt;&lt;th&gt;P1&lt;/th&gt;&lt;/tr&gt;&lt;tr style=&quot;border: 1px solid #98bf21&quot;&gt;&lt;td&gt;&lt;span style=&quot;font-size: 24px&quot;&gt;500&lt;/span&gt;&lt;/td&gt;&lt;/tr&gt;&lt;tr style=&quot;background-color: #eaf2d3 ; border: 1px solid #98bf21&quot;&gt;&lt;td&gt;400&lt;/td&gt;&lt;/tr&gt;&lt;tr style=&quot;border: 1px solid #98bf21&quot;&gt;&lt;td&gt;600&lt;/td&gt;&lt;/tr&gt;&lt;tr style=&quot;background-color: #eaf2d3 ; border: 1px solid #98bf21&quot;&gt;&lt;td&gt;380&lt;/td&gt;&lt;/tr&gt;&lt;tr&gt;&lt;td&gt;......&lt;/td&gt;&lt;/tr&gt;&lt;/tbody&gt;&lt;/table&gt;" style="text;html=1;strokeColor=#c0c0c0;fillColor=#ffffff;overflow=fill;rounded=0;align=center;" parent="1" vertex="1">
          <mxGeometry x="1290" y="5760.410000000001" width="110" height="310" as="geometry" />
        </mxCell>
        <mxCell id="VSAtMSxViYo08qL-0U2J-199" value="" style="shape=curlyBracket;whiteSpace=wrap;html=1;rounded=1;rotation=90;" parent="1" vertex="1">
          <mxGeometry x="1385.06" y="5662.58" width="38.49" height="132.5" as="geometry" />
        </mxCell>
        <mxCell id="VSAtMSxViYo08qL-0U2J-200" value="&lt;table border=&quot;1&quot; width=&quot;100%&quot; cellpadding=&quot;4&quot; style=&quot;width: 100% ; height: 100% ; border-collapse: collapse&quot;&gt;&lt;tbody&gt;&lt;tr style=&quot;background-color: #a7c942 ; color: #ffffff ; border: 1px solid #98bf21&quot;&gt;&lt;th&gt;&lt;span style=&quot;font-size: 24px&quot;&gt;I&lt;sub&gt;1&lt;/sub&gt;&lt;/span&gt;&lt;/th&gt;&lt;th&gt;&lt;span style=&quot;font-size: 24px&quot;&gt;I&lt;sub&gt;2&lt;/sub&gt;&lt;/span&gt;&lt;/th&gt;&lt;th&gt;&lt;span style=&quot;font-size: 24px;&quot;&gt;I&lt;sub&gt;3&lt;/sub&gt;&lt;/span&gt;&lt;/th&gt;&lt;/tr&gt;&lt;tr style=&quot;border: 1px solid #98bf21&quot;&gt;&lt;td&gt;&lt;span style=&quot;font-size: 24px;&quot;&gt;...&lt;/span&gt;&lt;/td&gt;&lt;td&gt;&lt;font style=&quot;font-size: 24px&quot;&gt;...&lt;/font&gt;&lt;/td&gt;&lt;td&gt;&lt;span style=&quot;font-size: 24px&quot;&gt;...&lt;/span&gt;&lt;/td&gt;&lt;/tr&gt;&lt;tr style=&quot;background-color: #eaf2d3 ; border: 1px solid #98bf21&quot;&gt;&lt;td&gt;&lt;font style=&quot;font-size: 24px&quot;&gt;...&lt;/font&gt;&lt;/td&gt;&lt;td&gt;&lt;font style=&quot;font-size: 24px&quot;&gt;...&lt;/font&gt;&lt;/td&gt;&lt;td&gt;&lt;span style=&quot;font-size: 24px&quot;&gt;...&lt;/span&gt;&lt;/td&gt;&lt;/tr&gt;&lt;tr style=&quot;border: 1px solid #98bf21&quot;&gt;&lt;td&gt;&lt;font style=&quot;font-size: 24px&quot;&gt;...&lt;/font&gt;&lt;/td&gt;&lt;td&gt;&lt;font style=&quot;font-size: 24px&quot;&gt;...&lt;/font&gt;&lt;/td&gt;&lt;td&gt;&lt;font style=&quot;font-size: 24px&quot;&gt;...&lt;/font&gt;&lt;/td&gt;&lt;/tr&gt;&lt;tr style=&quot;background-color: #eaf2d3 ; border: 1px solid #98bf21&quot;&gt;&lt;td&gt;&lt;font style=&quot;font-size: 24px&quot;&gt;...&lt;/font&gt;&lt;/td&gt;&lt;td&gt;&lt;font style=&quot;font-size: 24px&quot;&gt;...&lt;/font&gt;&lt;/td&gt;&lt;td&gt;&lt;font style=&quot;font-size: 24px&quot;&gt;...&lt;/font&gt;&lt;/td&gt;&lt;/tr&gt;&lt;tr&gt;&lt;td&gt;&lt;font style=&quot;font-size: 24px&quot;&gt;......&lt;/font&gt;&lt;/td&gt;&lt;td&gt;&lt;font style=&quot;font-size: 24px&quot;&gt;......&lt;/font&gt;&lt;/td&gt;&lt;td&gt;&lt;font style=&quot;font-size: 24px&quot;&gt;......&lt;/font&gt;&lt;/td&gt;&lt;/tr&gt;&lt;/tbody&gt;&lt;/table&gt;" style="text;html=1;strokeColor=#c0c0c0;fillColor=#ffffff;overflow=fill;rounded=0;align=center;" parent="1" vertex="1">
          <mxGeometry x="340" y="5760.95" width="280" height="308.46" as="geometry" />
        </mxCell>
        <mxCell id="VSAtMSxViYo08qL-0U2J-201" value="" style="shape=curlyBracket;whiteSpace=wrap;html=1;rounded=1;rotation=90;" parent="1" vertex="1">
          <mxGeometry x="1126.7199999999998" y="5611.33" width="45.81" height="235" as="geometry" />
        </mxCell>
        <mxCell id="VSAtMSxViYo08qL-0U2J-202" value="&lt;font style=&quot;font-size: 24px;&quot;&gt;t+1 角度值&lt;/font&gt;" style="text;html=1;align=center;verticalAlign=middle;resizable=0;points=[];autosize=1;" parent="1" vertex="1">
          <mxGeometry x="1094.8500000000001" y="5676.33" width="130" height="20" as="geometry" />
        </mxCell>
        <mxCell id="VSAtMSxViYo08qL-0U2J-203" value="&lt;table border=&quot;1&quot; width=&quot;100%&quot; cellpadding=&quot;4&quot; style=&quot;width: 100% ; height: 100% ; border-collapse: collapse&quot;&gt;&lt;tbody style=&quot;font-size: 24px&quot;&gt;&lt;tr style=&quot;background-color: #a7c942 ; color: #ffffff ; border: 1px solid #98bf21&quot;&gt;&lt;th&gt;P2&lt;/th&gt;&lt;/tr&gt;&lt;tr style=&quot;border: 1px solid #98bf21&quot;&gt;&lt;td&gt;&lt;span style=&quot;font-size: 24px&quot;&gt;500&lt;/span&gt;&lt;/td&gt;&lt;/tr&gt;&lt;tr style=&quot;background-color: #eaf2d3 ; border: 1px solid #98bf21&quot;&gt;&lt;td&gt;400&lt;/td&gt;&lt;/tr&gt;&lt;tr style=&quot;border: 1px solid #98bf21&quot;&gt;&lt;td&gt;600&lt;/td&gt;&lt;/tr&gt;&lt;tr style=&quot;background-color: #eaf2d3 ; border: 1px solid #98bf21&quot;&gt;&lt;td&gt;380&lt;/td&gt;&lt;/tr&gt;&lt;tr&gt;&lt;td&gt;......&lt;/td&gt;&lt;/tr&gt;&lt;/tbody&gt;&lt;/table&gt;" style="text;html=1;strokeColor=#c0c0c0;fillColor=#ffffff;overflow=fill;rounded=0;align=center;" parent="1" vertex="1">
          <mxGeometry x="1400" y="5760.410000000001" width="110" height="310" as="geometry" />
        </mxCell>
        <mxCell id="VSAtMSxViYo08qL-0U2J-204" value="&lt;font style=&quot;font-size: 24px;&quot;&gt;发电量&lt;/font&gt;" style="text;html=1;align=center;verticalAlign=middle;resizable=0;points=[];autosize=1;" parent="1" vertex="1">
          <mxGeometry x="1362.6200000000001" y="5676.33" width="90" height="20" as="geometry" />
        </mxCell>
        <mxCell id="VSAtMSxViYo08qL-0U2J-205" value="&lt;table border=&quot;1&quot; width=&quot;100%&quot; cellpadding=&quot;4&quot; style=&quot;width: 100% ; height: 100% ; border-collapse: collapse&quot;&gt;&lt;tbody style=&quot;font-size: 24px&quot;&gt;&lt;tr style=&quot;background-color: #a7c942 ; color: #ffffff ; border: 1px solid #98bf21&quot;&gt;&lt;th&gt;I&lt;sub&gt;4&lt;/sub&gt;&lt;/th&gt;&lt;/tr&gt;&lt;tr style=&quot;border: 1px solid #98bf21&quot;&gt;&lt;td&gt;&lt;span style=&quot;font-size: 24px&quot;&gt;500&lt;/span&gt;&lt;/td&gt;&lt;/tr&gt;&lt;tr style=&quot;background-color: #eaf2d3 ; border: 1px solid #98bf21&quot;&gt;&lt;td&gt;400&lt;/td&gt;&lt;/tr&gt;&lt;tr style=&quot;border: 1px solid #98bf21&quot;&gt;&lt;td&gt;600&lt;/td&gt;&lt;/tr&gt;&lt;tr style=&quot;background-color: #eaf2d3 ; border: 1px solid #98bf21&quot;&gt;&lt;td&gt;380&lt;/td&gt;&lt;/tr&gt;&lt;tr&gt;&lt;td&gt;......&lt;/td&gt;&lt;/tr&gt;&lt;/tbody&gt;&lt;/table&gt;" style="text;html=1;strokeColor=#c0c0c0;fillColor=#ffffff;overflow=fill;rounded=0;align=center;" parent="1" vertex="1">
          <mxGeometry x="620" y="5759.410000000001" width="110" height="310" as="geometry" />
        </mxCell>
        <mxCell id="VSAtMSxViYo08qL-0U2J-206" value="&lt;table border=&quot;1&quot; width=&quot;100%&quot; cellpadding=&quot;4&quot; style=&quot;width: 100% ; height: 100% ; border-collapse: collapse&quot;&gt;&lt;tbody style=&quot;font-size: 24px&quot;&gt;&lt;tr style=&quot;background-color: #a7c942 ; color: #ffffff ; border: 1px solid #98bf21&quot;&gt;&lt;th&gt;相似度&lt;/th&gt;&lt;/tr&gt;&lt;tr style=&quot;border: 1px solid #98bf21&quot;&gt;&lt;td&gt;&lt;span style=&quot;font-size: 24px&quot;&gt;1&lt;/span&gt;&lt;/td&gt;&lt;/tr&gt;&lt;tr style=&quot;background-color: #eaf2d3 ; border: 1px solid #98bf21&quot;&gt;&lt;td&gt;1&lt;/td&gt;&lt;/tr&gt;&lt;tr style=&quot;border: 1px solid #98bf21&quot;&gt;&lt;td&gt;0.9&lt;/td&gt;&lt;/tr&gt;&lt;tr style=&quot;background-color: #eaf2d3 ; border: 1px solid #98bf21&quot;&gt;&lt;td&gt;0.8&lt;/td&gt;&lt;/tr&gt;&lt;tr&gt;&lt;td&gt;......&lt;/td&gt;&lt;/tr&gt;&lt;/tbody&gt;&lt;/table&gt;" style="text;html=1;strokeColor=#c0c0c0;fillColor=#ffffff;overflow=fill;rounded=0;align=center;" parent="1" vertex="1">
          <mxGeometry x="1510" y="5759.41" width="110" height="310" as="geometry" />
        </mxCell>
        <mxCell id="VSAtMSxViYo08qL-0U2J-207" value="&lt;table border=&quot;1&quot; width=&quot;100%&quot; cellpadding=&quot;4&quot; style=&quot;width: 100% ; height: 100% ; border-collapse: collapse&quot;&gt;&lt;tbody&gt;&lt;tr style=&quot;background-color: #a7c942 ; color: #ffffff ; border: 1px solid #98bf21&quot;&gt;&lt;th&gt;&lt;span style=&quot;font-size: 24px&quot;&gt;时间&lt;/span&gt;&lt;/th&gt;&lt;th&gt;&lt;span style=&quot;font-size: 24px&quot;&gt;温度&lt;/span&gt;&lt;/th&gt;&lt;th&gt;&lt;span style=&quot;font-size: 24px&quot;&gt;天气&lt;/span&gt;&lt;/th&gt;&lt;/tr&gt;&lt;tr style=&quot;border: 1px solid #98bf21&quot;&gt;&lt;td&gt;&lt;span style=&quot;font-size: 24px&quot;&gt;12&lt;/span&gt;&lt;/td&gt;&lt;td&gt;&lt;font style=&quot;font-size: 24px&quot;&gt;32&lt;/font&gt;&lt;/td&gt;&lt;td&gt;&lt;span style=&quot;font-size: 24px&quot;&gt;阴&lt;/span&gt;&lt;/td&gt;&lt;/tr&gt;&lt;tr style=&quot;background-color: #eaf2d3 ; border: 1px solid #98bf21&quot;&gt;&lt;td&gt;&lt;font style=&quot;font-size: 24px&quot;&gt;12&lt;/font&gt;&lt;/td&gt;&lt;td&gt;&lt;font style=&quot;font-size: 24px&quot;&gt;32&lt;/font&gt;&lt;/td&gt;&lt;td&gt;&lt;span style=&quot;font-size: 24px&quot;&gt;阴&lt;/span&gt;&lt;/td&gt;&lt;/tr&gt;&lt;tr style=&quot;border: 1px solid #98bf21&quot;&gt;&lt;td&gt;&lt;font style=&quot;font-size: 24px&quot;&gt;12&lt;/font&gt;&lt;/td&gt;&lt;td&gt;&lt;font style=&quot;font-size: 24px&quot;&gt;31&lt;/font&gt;&lt;/td&gt;&lt;td&gt;&lt;font style=&quot;font-size: 24px&quot;&gt;阴&lt;/font&gt;&lt;/td&gt;&lt;/tr&gt;&lt;tr style=&quot;background-color: #eaf2d3 ; border: 1px solid #98bf21&quot;&gt;&lt;td&gt;&lt;font style=&quot;font-size: 24px&quot;&gt;12&lt;/font&gt;&lt;/td&gt;&lt;td&gt;&lt;font style=&quot;font-size: 24px&quot;&gt;32&lt;/font&gt;&lt;/td&gt;&lt;td&gt;&lt;font style=&quot;font-size: 24px&quot;&gt;晴&lt;/font&gt;&lt;/td&gt;&lt;/tr&gt;&lt;tr&gt;&lt;td&gt;&lt;font style=&quot;font-size: 24px&quot;&gt;......&lt;/font&gt;&lt;/td&gt;&lt;td&gt;&lt;font style=&quot;font-size: 24px&quot;&gt;......&lt;/font&gt;&lt;/td&gt;&lt;td&gt;&lt;font style=&quot;font-size: 24px&quot;&gt;......&lt;/font&gt;&lt;/td&gt;&lt;/tr&gt;&lt;/tbody&gt;&lt;/table&gt;" style="text;html=1;strokeColor=#c0c0c0;fillColor=#ffffff;overflow=fill;rounded=0;align=center;" parent="1" vertex="1">
          <mxGeometry x="60.000000000000114" y="5759.87" width="280" height="310" as="geometry" />
        </mxCell>
        <mxCell id="VSAtMSxViYo08qL-0U2J-209" value="如何从未探索动作确定先探索那个潜力大？" style="text;html=1;align=center;verticalAlign=middle;resizable=0;points=[];autosize=1;strokeColor=none;fillColor=none;fontSize=24;" parent="1" vertex="1">
          <mxGeometry x="963.55" y="6200" width="470" height="30" as="geometry" />
        </mxCell>
        <mxCell id="VSAtMSxViYo08qL-0U2J-210" value="动作空间较大，不可能遍历所有角度组合" style="text;html=1;align=center;verticalAlign=middle;resizable=0;points=[];autosize=1;strokeColor=none;fillColor=none;fontSize=24;" parent="1" vertex="1">
          <mxGeometry x="963.55" y="6140" width="450" height="30" as="geometry" />
        </mxCell>
        <mxCell id="VSAtMSxViYo08qL-0U2J-211" value="节能控制里设定温度越低，耗电量越大，本场景没有这种规律" style="text;html=1;align=center;verticalAlign=middle;resizable=0;points=[];autosize=1;strokeColor=none;fillColor=none;fontSize=24;" parent="1" vertex="1">
          <mxGeometry x="868.55" y="6260" width="660" height="30" as="geometry" />
        </mxCell>
        <mxCell id="VSAtMSxViYo08qL-0U2J-212" value="" style="shape=flexArrow;endArrow=classic;html=1;rounded=0;fontSize=24;strokeWidth=2;curved=1;endWidth=27.5;endSize=12.389473684210527;width=15.789473684210527;" parent="1" edge="1">
          <mxGeometry width="50" height="50" relative="1" as="geometry">
            <mxPoint x="763.9800000000001" y="6190" as="sourcePoint" />
            <mxPoint x="764.330000000001" y="6290" as="targetPoint" />
          </mxGeometry>
        </mxCell>
        <mxCell id="VSAtMSxViYo08qL-0U2J-213" value="" style="shape=curlyBracket;whiteSpace=wrap;html=1;rounded=1;rotation=90;" parent="1" vertex="1">
          <mxGeometry x="379.38" y="6130" width="38.71" height="598.75" as="geometry" />
        </mxCell>
        <mxCell id="VSAtMSxViYo08qL-0U2J-214" value="&lt;font style=&quot;font-size: 24px;&quot;&gt;状态量&lt;/font&gt;" style="text;html=1;align=center;verticalAlign=middle;resizable=0;points=[];autosize=1;" parent="1" vertex="1">
          <mxGeometry x="360" y="6376.87" width="90" height="20" as="geometry" />
        </mxCell>
        <mxCell id="VSAtMSxViYo08qL-0U2J-215" value="" style="shape=curlyBracket;whiteSpace=wrap;html=1;rounded=1;rotation=90;" parent="1" vertex="1">
          <mxGeometry x="853.14" y="6311.33" width="45.81" height="235" as="geometry" />
        </mxCell>
        <mxCell id="VSAtMSxViYo08qL-0U2J-216" value="&lt;font style=&quot;font-size: 24px;&quot;&gt;t 角度值&lt;/font&gt;" style="text;html=1;align=center;verticalAlign=middle;resizable=0;points=[];autosize=1;" parent="1" vertex="1">
          <mxGeometry x="836.2700000000001" y="6376.33" width="100" height="20" as="geometry" />
        </mxCell>
        <mxCell id="VSAtMSxViYo08qL-0U2J-217" value="&lt;table border=&quot;1&quot; width=&quot;100%&quot; cellpadding=&quot;4&quot; style=&quot;width: 100% ; height: 100% ; border-collapse: collapse&quot;&gt;&lt;tbody style=&quot;font-size: 24px&quot;&gt;&lt;tr style=&quot;background-color: #a7c942 ; color: #ffffff ; border: 1px solid #98bf21&quot;&gt;&lt;th&gt;&lt;span style=&quot;font-size: 24px&quot;&gt;S&lt;sub&gt;1&lt;/sub&gt;&lt;/span&gt;&lt;/th&gt;&lt;th&gt;......&lt;/th&gt;&lt;th&gt;&lt;span style=&quot;font-size: 24px&quot;&gt;S&lt;sub&gt;n&lt;/sub&gt;&lt;/span&gt;&lt;/th&gt;&lt;/tr&gt;&lt;tr style=&quot;border: 1px solid #98bf21&quot;&gt;&lt;td&gt;&lt;span style=&quot;font-size: 24px&quot;&gt;5&lt;/span&gt;&lt;/td&gt;&lt;td&gt;&lt;span style=&quot;font-size: 24px&quot;&gt;2&lt;/span&gt;&lt;/td&gt;&lt;td&gt;&lt;span style=&quot;font-size: 24px&quot;&gt;-2&lt;/span&gt;&lt;/td&gt;&lt;/tr&gt;&lt;tr style=&quot;background-color: #eaf2d3 ; border: 1px solid #98bf21&quot;&gt;&lt;td&gt;&lt;span style=&quot;font-size: 24px&quot;&gt;4&lt;/span&gt;&lt;/td&gt;&lt;td&gt;&lt;font style=&quot;font-size: 24px&quot;&gt;3&lt;/font&gt;&lt;/td&gt;&lt;td&gt;&lt;span style=&quot;font-size: 24px&quot;&gt;2&lt;/span&gt;&lt;/td&gt;&lt;/tr&gt;&lt;tr style=&quot;border: 1px solid #98bf21&quot;&gt;&lt;td&gt;&lt;font style=&quot;font-size: 24px&quot;&gt;1&lt;/font&gt;&lt;/td&gt;&lt;td&gt;&lt;font style=&quot;font-size: 24px&quot;&gt;5&lt;/font&gt;&lt;/td&gt;&lt;td&gt;&lt;span style=&quot;font-size: 24px&quot;&gt;-3&lt;/span&gt;&lt;/td&gt;&lt;/tr&gt;&lt;tr style=&quot;background-color: #eaf2d3 ; border: 1px solid #98bf21&quot;&gt;&lt;td&gt;&lt;span style=&quot;font-size: 24px&quot;&gt;3&lt;/span&gt;&lt;/td&gt;&lt;td&gt;&lt;font style=&quot;font-size: 24px&quot;&gt;2&lt;/font&gt;&lt;/td&gt;&lt;td&gt;&lt;span style=&quot;font-size: 24px&quot;&gt;4&lt;/span&gt;&lt;/td&gt;&lt;/tr&gt;&lt;tr&gt;&lt;td&gt;......&lt;/td&gt;&lt;td&gt;......&lt;/td&gt;&lt;td&gt;......&lt;/td&gt;&lt;/tr&gt;&lt;/tbody&gt;&lt;/table&gt;" style="text;html=1;strokeColor=#c0c0c0;fillColor=#ffffff;overflow=fill;rounded=0;align=center;" parent="1" vertex="1">
          <mxGeometry x="730.0000000000001" y="6459.870000000001" width="280" height="310" as="geometry" />
        </mxCell>
        <mxCell id="VSAtMSxViYo08qL-0U2J-218" value="&lt;table border=&quot;1&quot; width=&quot;100%&quot; cellpadding=&quot;4&quot; style=&quot;width: 100% ; height: 100% ; border-collapse: collapse&quot;&gt;&lt;tbody style=&quot;font-size: 24px&quot;&gt;&lt;tr style=&quot;background-color: #a7c942 ; color: #ffffff ; border: 1px solid #98bf21&quot;&gt;&lt;th&gt;&lt;span style=&quot;font-size: 24px&quot;&gt;S&lt;sub&gt;1&lt;/sub&gt;&#39;&lt;/span&gt;&lt;/th&gt;&lt;th&gt;&lt;span style=&quot;font-size: 24px&quot;&gt;......&lt;/span&gt;&lt;/th&gt;&lt;th&gt;&lt;span style=&quot;font-size: 24px&quot;&gt;S&lt;sub&gt;n&lt;/sub&gt;&#39;&lt;/span&gt;&lt;/th&gt;&lt;/tr&gt;&lt;tr style=&quot;border: 1px solid #98bf21&quot;&gt;&lt;td&gt;&lt;span style=&quot;font-size: 24px&quot;&gt;3&lt;/span&gt;&lt;/td&gt;&lt;td&gt;&lt;span style=&quot;font-size: 24px&quot;&gt;-5&lt;/span&gt;&lt;/td&gt;&lt;td&gt;&lt;span style=&quot;font-size: 24px&quot;&gt;0&lt;/span&gt;&lt;/td&gt;&lt;/tr&gt;&lt;tr style=&quot;background-color: #eaf2d3 ; border: 1px solid #98bf21&quot;&gt;&lt;td&gt;&lt;font style=&quot;font-size: 24px&quot;&gt;0&lt;/font&gt;&lt;/td&gt;&lt;td&gt;&lt;font style=&quot;font-size: 24px&quot;&gt;-3&lt;/font&gt;&lt;/td&gt;&lt;td&gt;&lt;span style=&quot;font-size: 24px&quot;&gt;1&lt;/span&gt;&lt;/td&gt;&lt;/tr&gt;&lt;tr style=&quot;border: 1px solid #98bf21&quot;&gt;&lt;td&gt;&lt;font style=&quot;font-size: 24px&quot;&gt;1&lt;/font&gt;&lt;/td&gt;&lt;td&gt;&lt;font style=&quot;font-size: 24px&quot;&gt;3&lt;/font&gt;&lt;/td&gt;&lt;td&gt;&lt;span style=&quot;font-size: 24px&quot;&gt;2&lt;/span&gt;&lt;/td&gt;&lt;/tr&gt;&lt;tr style=&quot;background-color: #eaf2d3 ; border: 1px solid #98bf21&quot;&gt;&lt;td&gt;&lt;span style=&quot;font-size: 24px&quot;&gt;0&lt;/span&gt;&lt;/td&gt;&lt;td&gt;&lt;font style=&quot;font-size: 24px&quot;&gt;-1&lt;/font&gt;&lt;/td&gt;&lt;td&gt;&lt;span style=&quot;font-size: 24px&quot;&gt;-4&lt;/span&gt;&lt;/td&gt;&lt;/tr&gt;&lt;tr&gt;&lt;td&gt;......&lt;/td&gt;&lt;td&gt;......&lt;/td&gt;&lt;td&gt;......&lt;/td&gt;&lt;/tr&gt;&lt;/tbody&gt;&lt;/table&gt;" style="text;html=1;strokeColor=#c0c0c0;fillColor=#ffffff;overflow=fill;rounded=0;align=center;" parent="1" vertex="1">
          <mxGeometry x="1010" y="6459.870000000001" width="280" height="310" as="geometry" />
        </mxCell>
        <mxCell id="VSAtMSxViYo08qL-0U2J-219" value="&lt;table border=&quot;1&quot; width=&quot;100%&quot; cellpadding=&quot;4&quot; style=&quot;width: 100% ; height: 100% ; border-collapse: collapse&quot;&gt;&lt;tbody style=&quot;font-size: 24px&quot;&gt;&lt;tr style=&quot;background-color: #a7c942 ; color: #ffffff ; border: 1px solid #98bf21&quot;&gt;&lt;th&gt;P1&lt;/th&gt;&lt;/tr&gt;&lt;tr style=&quot;border: 1px solid #98bf21&quot;&gt;&lt;td&gt;&lt;span style=&quot;font-size: 24px&quot;&gt;500&lt;/span&gt;&lt;/td&gt;&lt;/tr&gt;&lt;tr style=&quot;background-color: #eaf2d3 ; border: 1px solid #98bf21&quot;&gt;&lt;td&gt;400&lt;/td&gt;&lt;/tr&gt;&lt;tr style=&quot;border: 1px solid #98bf21&quot;&gt;&lt;td&gt;600&lt;/td&gt;&lt;/tr&gt;&lt;tr style=&quot;background-color: #eaf2d3 ; border: 1px solid #98bf21&quot;&gt;&lt;td&gt;380&lt;/td&gt;&lt;/tr&gt;&lt;tr&gt;&lt;td&gt;......&lt;/td&gt;&lt;/tr&gt;&lt;/tbody&gt;&lt;/table&gt;" style="text;html=1;strokeColor=#c0c0c0;fillColor=#ffffff;overflow=fill;rounded=0;align=center;" parent="1" vertex="1">
          <mxGeometry x="1290" y="6460.410000000001" width="110" height="310" as="geometry" />
        </mxCell>
        <mxCell id="VSAtMSxViYo08qL-0U2J-220" value="" style="shape=curlyBracket;whiteSpace=wrap;html=1;rounded=1;rotation=90;" parent="1" vertex="1">
          <mxGeometry x="1385.06" y="6362.58" width="38.49" height="132.5" as="geometry" />
        </mxCell>
        <mxCell id="VSAtMSxViYo08qL-0U2J-221" value="&lt;table border=&quot;1&quot; width=&quot;100%&quot; cellpadding=&quot;4&quot; style=&quot;width: 100% ; height: 100% ; border-collapse: collapse&quot;&gt;&lt;tbody&gt;&lt;tr style=&quot;background-color: #a7c942 ; color: #ffffff ; border: 1px solid #98bf21&quot;&gt;&lt;th&gt;&lt;span style=&quot;font-size: 24px&quot;&gt;I&lt;sub&gt;1&lt;/sub&gt;&lt;/span&gt;&lt;/th&gt;&lt;th&gt;&lt;span style=&quot;font-size: 24px&quot;&gt;I&lt;sub&gt;2&lt;/sub&gt;&lt;/span&gt;&lt;/th&gt;&lt;th&gt;&lt;span style=&quot;font-size: 24px;&quot;&gt;I&lt;sub&gt;3&lt;/sub&gt;&lt;/span&gt;&lt;/th&gt;&lt;/tr&gt;&lt;tr style=&quot;border: 1px solid #98bf21&quot;&gt;&lt;td&gt;&lt;span style=&quot;font-size: 24px;&quot;&gt;...&lt;/span&gt;&lt;/td&gt;&lt;td&gt;&lt;font style=&quot;font-size: 24px&quot;&gt;...&lt;/font&gt;&lt;/td&gt;&lt;td&gt;&lt;span style=&quot;font-size: 24px&quot;&gt;...&lt;/span&gt;&lt;/td&gt;&lt;/tr&gt;&lt;tr style=&quot;background-color: #eaf2d3 ; border: 1px solid #98bf21&quot;&gt;&lt;td&gt;&lt;font style=&quot;font-size: 24px&quot;&gt;...&lt;/font&gt;&lt;/td&gt;&lt;td&gt;&lt;font style=&quot;font-size: 24px&quot;&gt;...&lt;/font&gt;&lt;/td&gt;&lt;td&gt;&lt;span style=&quot;font-size: 24px&quot;&gt;...&lt;/span&gt;&lt;/td&gt;&lt;/tr&gt;&lt;tr style=&quot;border: 1px solid #98bf21&quot;&gt;&lt;td&gt;&lt;font style=&quot;font-size: 24px&quot;&gt;...&lt;/font&gt;&lt;/td&gt;&lt;td&gt;&lt;font style=&quot;font-size: 24px&quot;&gt;...&lt;/font&gt;&lt;/td&gt;&lt;td&gt;&lt;font style=&quot;font-size: 24px&quot;&gt;...&lt;/font&gt;&lt;/td&gt;&lt;/tr&gt;&lt;tr style=&quot;background-color: #eaf2d3 ; border: 1px solid #98bf21&quot;&gt;&lt;td&gt;&lt;font style=&quot;font-size: 24px&quot;&gt;...&lt;/font&gt;&lt;/td&gt;&lt;td&gt;&lt;font style=&quot;font-size: 24px&quot;&gt;...&lt;/font&gt;&lt;/td&gt;&lt;td&gt;&lt;font style=&quot;font-size: 24px&quot;&gt;...&lt;/font&gt;&lt;/td&gt;&lt;/tr&gt;&lt;tr&gt;&lt;td&gt;&lt;font style=&quot;font-size: 24px&quot;&gt;......&lt;/font&gt;&lt;/td&gt;&lt;td&gt;&lt;font style=&quot;font-size: 24px&quot;&gt;......&lt;/font&gt;&lt;/td&gt;&lt;td&gt;&lt;font style=&quot;font-size: 24px&quot;&gt;......&lt;/font&gt;&lt;/td&gt;&lt;/tr&gt;&lt;/tbody&gt;&lt;/table&gt;" style="text;html=1;strokeColor=#c0c0c0;fillColor=#ffffff;overflow=fill;rounded=0;align=center;" parent="1" vertex="1">
          <mxGeometry x="340" y="6460.95" width="280" height="308.46" as="geometry" />
        </mxCell>
        <mxCell id="VSAtMSxViYo08qL-0U2J-222" value="" style="shape=curlyBracket;whiteSpace=wrap;html=1;rounded=1;rotation=90;" parent="1" vertex="1">
          <mxGeometry x="1126.7199999999998" y="6311.33" width="45.81" height="235" as="geometry" />
        </mxCell>
        <mxCell id="VSAtMSxViYo08qL-0U2J-223" value="&lt;font style=&quot;font-size: 24px;&quot;&gt;t+1 角度值&lt;/font&gt;" style="text;html=1;align=center;verticalAlign=middle;resizable=0;points=[];autosize=1;" parent="1" vertex="1">
          <mxGeometry x="1094.8500000000001" y="6376.33" width="130" height="20" as="geometry" />
        </mxCell>
        <mxCell id="VSAtMSxViYo08qL-0U2J-224" value="&lt;table border=&quot;1&quot; width=&quot;100%&quot; cellpadding=&quot;4&quot; style=&quot;width: 100% ; height: 100% ; border-collapse: collapse&quot;&gt;&lt;tbody style=&quot;font-size: 24px&quot;&gt;&lt;tr style=&quot;background-color: #a7c942 ; color: #ffffff ; border: 1px solid #98bf21&quot;&gt;&lt;th&gt;P2&lt;/th&gt;&lt;/tr&gt;&lt;tr style=&quot;border: 1px solid #98bf21&quot;&gt;&lt;td&gt;&lt;span style=&quot;font-size: 24px&quot;&gt;500&lt;/span&gt;&lt;/td&gt;&lt;/tr&gt;&lt;tr style=&quot;background-color: #eaf2d3 ; border: 1px solid #98bf21&quot;&gt;&lt;td&gt;400&lt;/td&gt;&lt;/tr&gt;&lt;tr style=&quot;border: 1px solid #98bf21&quot;&gt;&lt;td&gt;600&lt;/td&gt;&lt;/tr&gt;&lt;tr style=&quot;background-color: #eaf2d3 ; border: 1px solid #98bf21&quot;&gt;&lt;td&gt;380&lt;/td&gt;&lt;/tr&gt;&lt;tr&gt;&lt;td&gt;......&lt;/td&gt;&lt;/tr&gt;&lt;/tbody&gt;&lt;/table&gt;" style="text;html=1;strokeColor=#c0c0c0;fillColor=#ffffff;overflow=fill;rounded=0;align=center;" parent="1" vertex="1">
          <mxGeometry x="1400" y="6460.410000000001" width="110" height="310" as="geometry" />
        </mxCell>
        <mxCell id="VSAtMSxViYo08qL-0U2J-225" value="&lt;font style=&quot;font-size: 24px;&quot;&gt;发电量&lt;/font&gt;" style="text;html=1;align=center;verticalAlign=middle;resizable=0;points=[];autosize=1;" parent="1" vertex="1">
          <mxGeometry x="1362.6200000000001" y="6376.33" width="90" height="20" as="geometry" />
        </mxCell>
        <mxCell id="VSAtMSxViYo08qL-0U2J-226" value="&lt;table border=&quot;1&quot; width=&quot;100%&quot; cellpadding=&quot;4&quot; style=&quot;width: 100% ; height: 100% ; border-collapse: collapse&quot;&gt;&lt;tbody style=&quot;font-size: 24px&quot;&gt;&lt;tr style=&quot;background-color: #a7c942 ; color: #ffffff ; border: 1px solid #98bf21&quot;&gt;&lt;th&gt;I&lt;sub&gt;4&lt;/sub&gt;&lt;/th&gt;&lt;/tr&gt;&lt;tr style=&quot;border: 1px solid #98bf21&quot;&gt;&lt;td&gt;&lt;span style=&quot;font-size: 24px&quot;&gt;500&lt;/span&gt;&lt;/td&gt;&lt;/tr&gt;&lt;tr style=&quot;background-color: #eaf2d3 ; border: 1px solid #98bf21&quot;&gt;&lt;td&gt;400&lt;/td&gt;&lt;/tr&gt;&lt;tr style=&quot;border: 1px solid #98bf21&quot;&gt;&lt;td&gt;600&lt;/td&gt;&lt;/tr&gt;&lt;tr style=&quot;background-color: #eaf2d3 ; border: 1px solid #98bf21&quot;&gt;&lt;td&gt;380&lt;/td&gt;&lt;/tr&gt;&lt;tr&gt;&lt;td&gt;......&lt;/td&gt;&lt;/tr&gt;&lt;/tbody&gt;&lt;/table&gt;" style="text;html=1;strokeColor=#c0c0c0;fillColor=#ffffff;overflow=fill;rounded=0;align=center;" parent="1" vertex="1">
          <mxGeometry x="620" y="6459.410000000001" width="110" height="310" as="geometry" />
        </mxCell>
        <mxCell id="VSAtMSxViYo08qL-0U2J-227" value="&lt;table border=&quot;1&quot; width=&quot;100%&quot; cellpadding=&quot;4&quot; style=&quot;width: 100% ; height: 100% ; border-collapse: collapse&quot;&gt;&lt;tbody style=&quot;font-size: 24px&quot;&gt;&lt;tr style=&quot;background-color: #a7c942 ; color: #ffffff ; border: 1px solid #98bf21&quot;&gt;&lt;th&gt;相似度&lt;/th&gt;&lt;/tr&gt;&lt;tr style=&quot;border: 1px solid #98bf21&quot;&gt;&lt;td&gt;&lt;span style=&quot;font-size: 24px&quot;&gt;1&lt;/span&gt;&lt;/td&gt;&lt;/tr&gt;&lt;tr style=&quot;background-color: #eaf2d3 ; border: 1px solid #98bf21&quot;&gt;&lt;td&gt;1&lt;/td&gt;&lt;/tr&gt;&lt;tr style=&quot;border: 1px solid #98bf21&quot;&gt;&lt;td&gt;0.9&lt;/td&gt;&lt;/tr&gt;&lt;tr style=&quot;background-color: #eaf2d3 ; border: 1px solid #98bf21&quot;&gt;&lt;td&gt;0.8&lt;/td&gt;&lt;/tr&gt;&lt;tr&gt;&lt;td&gt;......&lt;/td&gt;&lt;/tr&gt;&lt;/tbody&gt;&lt;/table&gt;" style="text;html=1;strokeColor=#c0c0c0;fillColor=#ffffff;overflow=fill;rounded=0;align=center;" parent="1" vertex="1">
          <mxGeometry x="1510" y="6459.41" width="110" height="310" as="geometry" />
        </mxCell>
        <mxCell id="VSAtMSxViYo08qL-0U2J-228" value="&lt;table border=&quot;1&quot; width=&quot;100%&quot; cellpadding=&quot;4&quot; style=&quot;width: 100% ; height: 100% ; border-collapse: collapse&quot;&gt;&lt;tbody&gt;&lt;tr style=&quot;background-color: #a7c942 ; color: #ffffff ; border: 1px solid #98bf21&quot;&gt;&lt;th&gt;&lt;span style=&quot;font-size: 24px&quot;&gt;时间&lt;/span&gt;&lt;/th&gt;&lt;th&gt;&lt;span style=&quot;font-size: 24px&quot;&gt;温度&lt;/span&gt;&lt;/th&gt;&lt;th&gt;&lt;span style=&quot;font-size: 24px&quot;&gt;天气&lt;/span&gt;&lt;/th&gt;&lt;/tr&gt;&lt;tr style=&quot;border: 1px solid #98bf21&quot;&gt;&lt;td&gt;&lt;span style=&quot;font-size: 24px&quot;&gt;12&lt;/span&gt;&lt;/td&gt;&lt;td&gt;&lt;font style=&quot;font-size: 24px&quot;&gt;32&lt;/font&gt;&lt;/td&gt;&lt;td&gt;&lt;span style=&quot;font-size: 24px&quot;&gt;阴&lt;/span&gt;&lt;/td&gt;&lt;/tr&gt;&lt;tr style=&quot;background-color: #eaf2d3 ; border: 1px solid #98bf21&quot;&gt;&lt;td&gt;&lt;font style=&quot;font-size: 24px&quot;&gt;12&lt;/font&gt;&lt;/td&gt;&lt;td&gt;&lt;font style=&quot;font-size: 24px&quot;&gt;32&lt;/font&gt;&lt;/td&gt;&lt;td&gt;&lt;span style=&quot;font-size: 24px&quot;&gt;阴&lt;/span&gt;&lt;/td&gt;&lt;/tr&gt;&lt;tr style=&quot;border: 1px solid #98bf21&quot;&gt;&lt;td&gt;&lt;font style=&quot;font-size: 24px&quot;&gt;12&lt;/font&gt;&lt;/td&gt;&lt;td&gt;&lt;font style=&quot;font-size: 24px&quot;&gt;31&lt;/font&gt;&lt;/td&gt;&lt;td&gt;&lt;font style=&quot;font-size: 24px&quot;&gt;阴&lt;/font&gt;&lt;/td&gt;&lt;/tr&gt;&lt;tr style=&quot;background-color: #eaf2d3 ; border: 1px solid #98bf21&quot;&gt;&lt;td&gt;&lt;font style=&quot;font-size: 24px&quot;&gt;12&lt;/font&gt;&lt;/td&gt;&lt;td&gt;&lt;font style=&quot;font-size: 24px&quot;&gt;32&lt;/font&gt;&lt;/td&gt;&lt;td&gt;&lt;font style=&quot;font-size: 24px&quot;&gt;晴&lt;/font&gt;&lt;/td&gt;&lt;/tr&gt;&lt;tr&gt;&lt;td&gt;&lt;font style=&quot;font-size: 24px&quot;&gt;......&lt;/font&gt;&lt;/td&gt;&lt;td&gt;&lt;font style=&quot;font-size: 24px&quot;&gt;......&lt;/font&gt;&lt;/td&gt;&lt;td&gt;&lt;font style=&quot;font-size: 24px&quot;&gt;......&lt;/font&gt;&lt;/td&gt;&lt;/tr&gt;&lt;/tbody&gt;&lt;/table&gt;" style="text;html=1;strokeColor=#c0c0c0;fillColor=#ffffff;overflow=fill;rounded=0;align=center;" parent="1" vertex="1">
          <mxGeometry x="60.000000000000114" y="6459.87" width="280" height="310" as="geometry" />
        </mxCell>
        <mxCell id="VSAtMSxViYo08qL-0U2J-231" value="" style="shape=curlyBracket;whiteSpace=wrap;html=1;rounded=1;rotation=-90;" parent="1" vertex="1">
          <mxGeometry x="1432.0999999999997" y="6690" width="45.81" height="235" as="geometry" />
        </mxCell>
        <mxCell id="VSAtMSxViYo08qL-0U2J-232" value="Pareto 最优解&lt;br&gt;或加权平均" style="text;html=1;align=center;verticalAlign=middle;resizable=0;points=[];autosize=1;strokeColor=none;fillColor=none;fontSize=24;" parent="1" vertex="1">
          <mxGeometry x="1370" y="6825" width="170" height="60" as="geometry" />
        </mxCell>
        <mxCell id="VSAtMSxViYo08qL-0U2J-233" value="" style="shape=flexArrow;endArrow=classic;html=1;rounded=0;fontSize=24;strokeWidth=2;curved=1;endWidth=27.5;endSize=12.389473684210527;width=15.789473684210527;" parent="1" edge="1">
          <mxGeometry width="50" height="50" relative="1" as="geometry">
            <mxPoint x="760.0000000000005" y="6838" as="sourcePoint" />
            <mxPoint x="760.3500000000013" y="6938" as="targetPoint" />
          </mxGeometry>
        </mxCell>
        <mxCell id="VSAtMSxViYo08qL-0U2J-234" value="&lt;span style=&quot;font-size: 24px&quot;&gt;输出角度采样点&lt;/span&gt;" style="shape=ext;double=1;rounded=1;whiteSpace=wrap;html=1;" parent="1" vertex="1">
          <mxGeometry x="664.03" y="6960" width="189.11" height="80" as="geometry" />
        </mxCell>
        <mxCell id="VSAtMSxViYo08qL-0U2J-235" value="" style="shape=curlyBracket;whiteSpace=wrap;html=1;rounded=1;rotation=90;" parent="1" vertex="1">
          <mxGeometry x="2116.8" y="4620" width="38.71" height="598.75" as="geometry" />
        </mxCell>
        <mxCell id="VSAtMSxViYo08qL-0U2J-236" value="&lt;font style=&quot;font-size: 24px;&quot;&gt;状态量&lt;/font&gt;" style="text;html=1;align=center;verticalAlign=middle;resizable=0;points=[];autosize=1;" parent="1" vertex="1">
          <mxGeometry x="2097.42" y="4866.87" width="90" height="20" as="geometry" />
        </mxCell>
        <mxCell id="VSAtMSxViYo08qL-0U2J-237" value="&lt;table border=&quot;1&quot; width=&quot;100%&quot; cellpadding=&quot;4&quot; style=&quot;width: 100% ; height: 100% ; border-collapse: collapse&quot;&gt;&lt;tbody&gt;&lt;tr style=&quot;background-color: #a7c942 ; color: #ffffff ; border: 1px solid #98bf21&quot;&gt;&lt;th&gt;&lt;span style=&quot;font-size: 24px&quot;&gt;时间&lt;/span&gt;&lt;/th&gt;&lt;th&gt;&lt;span style=&quot;font-size: 24px&quot;&gt;温度&lt;/span&gt;&lt;/th&gt;&lt;th&gt;&lt;span style=&quot;font-size: 24px&quot;&gt;天气&lt;/span&gt;&lt;/th&gt;&lt;/tr&gt;&lt;tr style=&quot;border: 1px solid #98bf21&quot;&gt;&lt;td&gt;&lt;font style=&quot;font-size: 24px&quot;&gt;8&lt;/font&gt;&lt;/td&gt;&lt;td&gt;&lt;font style=&quot;font-size: 24px&quot;&gt;28&lt;/font&gt;&lt;/td&gt;&lt;td&gt;&lt;span style=&quot;font-size: 24px&quot;&gt;晴&lt;/span&gt;&lt;/td&gt;&lt;/tr&gt;&lt;tr style=&quot;background-color: #eaf2d3 ; border: 1px solid #98bf21&quot;&gt;&lt;td&gt;&lt;font style=&quot;font-size: 24px&quot;&gt;10&lt;/font&gt;&lt;/td&gt;&lt;td&gt;&lt;font style=&quot;font-size: 24px&quot;&gt;30&lt;/font&gt;&lt;/td&gt;&lt;td&gt;&lt;span style=&quot;font-size: 24px&quot;&gt;阴&lt;/span&gt;&lt;/td&gt;&lt;/tr&gt;&lt;tr style=&quot;border: 1px solid #98bf21&quot;&gt;&lt;td&gt;&lt;font style=&quot;font-size: 24px&quot;&gt;14&lt;/font&gt;&lt;/td&gt;&lt;td&gt;&lt;font style=&quot;font-size: 24px&quot;&gt;35&lt;/font&gt;&lt;/td&gt;&lt;td&gt;&lt;font style=&quot;font-size: 24px&quot;&gt;晴&lt;/font&gt;&lt;/td&gt;&lt;/tr&gt;&lt;tr style=&quot;background-color: #eaf2d3 ; border: 1px solid #98bf21&quot;&gt;&lt;td&gt;&lt;font style=&quot;font-size: 24px&quot;&gt;16&lt;/font&gt;&lt;/td&gt;&lt;td&gt;&lt;font style=&quot;font-size: 24px&quot;&gt;32&lt;/font&gt;&lt;/td&gt;&lt;td&gt;&lt;font style=&quot;font-size: 24px&quot;&gt;雨&lt;/font&gt;&lt;/td&gt;&lt;/tr&gt;&lt;tr&gt;&lt;td&gt;&lt;font style=&quot;font-size: 24px&quot;&gt;......&lt;/font&gt;&lt;/td&gt;&lt;td&gt;&lt;font style=&quot;font-size: 24px&quot;&gt;......&lt;/font&gt;&lt;/td&gt;&lt;td&gt;&lt;font style=&quot;font-size: 24px&quot;&gt;......&lt;/font&gt;&lt;/td&gt;&lt;/tr&gt;&lt;/tbody&gt;&lt;/table&gt;" style="text;html=1;strokeColor=#c0c0c0;fillColor=#ffffff;overflow=fill;rounded=0;align=center;" parent="1" vertex="1">
          <mxGeometry x="1797.42" y="4950.410000000001" width="280" height="310" as="geometry" />
        </mxCell>
        <mxCell id="VSAtMSxViYo08qL-0U2J-238" value="" style="shape=curlyBracket;whiteSpace=wrap;html=1;rounded=1;rotation=90;" parent="1" vertex="1">
          <mxGeometry x="2590.56" y="4801.33" width="45.81" height="235" as="geometry" />
        </mxCell>
        <mxCell id="VSAtMSxViYo08qL-0U2J-239" value="&lt;font style=&quot;font-size: 24px;&quot;&gt;t 角度值&lt;/font&gt;" style="text;html=1;align=center;verticalAlign=middle;resizable=0;points=[];autosize=1;" parent="1" vertex="1">
          <mxGeometry x="2573.69" y="4866.33" width="100" height="20" as="geometry" />
        </mxCell>
        <mxCell id="VSAtMSxViYo08qL-0U2J-240" value="&lt;table border=&quot;1&quot; width=&quot;100%&quot; cellpadding=&quot;4&quot; style=&quot;width: 100% ; height: 100% ; border-collapse: collapse&quot;&gt;&lt;tbody style=&quot;font-size: 24px&quot;&gt;&lt;tr style=&quot;background-color: #a7c942 ; color: #ffffff ; border: 1px solid #98bf21&quot;&gt;&lt;th&gt;&lt;span style=&quot;font-size: 24px&quot;&gt;S&lt;sub&gt;1&lt;/sub&gt;&lt;/span&gt;&lt;/th&gt;&lt;th&gt;......&lt;/th&gt;&lt;th&gt;&lt;span style=&quot;font-size: 24px&quot;&gt;S&lt;sub&gt;n&lt;/sub&gt;&lt;/span&gt;&lt;/th&gt;&lt;/tr&gt;&lt;tr style=&quot;border: 1px solid #98bf21&quot;&gt;&lt;td&gt;&lt;span style=&quot;font-size: 24px&quot;&gt;5&lt;/span&gt;&lt;/td&gt;&lt;td&gt;&lt;span style=&quot;font-size: 24px&quot;&gt;2&lt;/span&gt;&lt;/td&gt;&lt;td&gt;&lt;span style=&quot;font-size: 24px&quot;&gt;-2&lt;/span&gt;&lt;/td&gt;&lt;/tr&gt;&lt;tr style=&quot;background-color: #eaf2d3 ; border: 1px solid #98bf21&quot;&gt;&lt;td&gt;&lt;span style=&quot;font-size: 24px&quot;&gt;4&lt;/span&gt;&lt;/td&gt;&lt;td&gt;&lt;font style=&quot;font-size: 24px&quot;&gt;3&lt;/font&gt;&lt;/td&gt;&lt;td&gt;&lt;span style=&quot;font-size: 24px&quot;&gt;2&lt;/span&gt;&lt;/td&gt;&lt;/tr&gt;&lt;tr style=&quot;border: 1px solid #98bf21&quot;&gt;&lt;td&gt;&lt;font style=&quot;font-size: 24px&quot;&gt;1&lt;/font&gt;&lt;/td&gt;&lt;td&gt;&lt;font style=&quot;font-size: 24px&quot;&gt;5&lt;/font&gt;&lt;/td&gt;&lt;td&gt;&lt;span style=&quot;font-size: 24px&quot;&gt;-3&lt;/span&gt;&lt;/td&gt;&lt;/tr&gt;&lt;tr style=&quot;background-color: #eaf2d3 ; border: 1px solid #98bf21&quot;&gt;&lt;td&gt;&lt;span style=&quot;font-size: 24px&quot;&gt;3&lt;/span&gt;&lt;/td&gt;&lt;td&gt;&lt;font style=&quot;font-size: 24px&quot;&gt;2&lt;/font&gt;&lt;/td&gt;&lt;td&gt;&lt;span style=&quot;font-size: 24px&quot;&gt;4&lt;/span&gt;&lt;/td&gt;&lt;/tr&gt;&lt;tr&gt;&lt;td&gt;......&lt;/td&gt;&lt;td&gt;......&lt;/td&gt;&lt;td&gt;......&lt;/td&gt;&lt;/tr&gt;&lt;/tbody&gt;&lt;/table&gt;" style="text;html=1;strokeColor=#c0c0c0;fillColor=#ffffff;overflow=fill;rounded=0;align=center;" parent="1" vertex="1">
          <mxGeometry x="2467.42" y="4949.870000000001" width="280" height="310" as="geometry" />
        </mxCell>
        <mxCell id="VSAtMSxViYo08qL-0U2J-241" value="&lt;table border=&quot;1&quot; width=&quot;100%&quot; cellpadding=&quot;4&quot; style=&quot;width: 100% ; height: 100% ; border-collapse: collapse&quot;&gt;&lt;tbody style=&quot;font-size: 24px&quot;&gt;&lt;tr style=&quot;background-color: #a7c942 ; color: #ffffff ; border: 1px solid #98bf21&quot;&gt;&lt;th&gt;&lt;span style=&quot;font-size: 24px&quot;&gt;S&lt;sub&gt;1&lt;/sub&gt;&#39;&lt;/span&gt;&lt;/th&gt;&lt;th&gt;&lt;span style=&quot;font-size: 24px&quot;&gt;......&lt;/span&gt;&lt;/th&gt;&lt;th&gt;&lt;span style=&quot;font-size: 24px&quot;&gt;S&lt;sub&gt;n&lt;/sub&gt;&#39;&lt;/span&gt;&lt;/th&gt;&lt;/tr&gt;&lt;tr style=&quot;border: 1px solid #98bf21&quot;&gt;&lt;td&gt;&lt;span style=&quot;font-size: 24px&quot;&gt;3&lt;/span&gt;&lt;/td&gt;&lt;td&gt;&lt;span style=&quot;font-size: 24px&quot;&gt;-5&lt;/span&gt;&lt;/td&gt;&lt;td&gt;&lt;span style=&quot;font-size: 24px&quot;&gt;0&lt;/span&gt;&lt;/td&gt;&lt;/tr&gt;&lt;tr style=&quot;background-color: #eaf2d3 ; border: 1px solid #98bf21&quot;&gt;&lt;td&gt;&lt;font style=&quot;font-size: 24px&quot;&gt;0&lt;/font&gt;&lt;/td&gt;&lt;td&gt;&lt;font style=&quot;font-size: 24px&quot;&gt;-3&lt;/font&gt;&lt;/td&gt;&lt;td&gt;&lt;span style=&quot;font-size: 24px&quot;&gt;1&lt;/span&gt;&lt;/td&gt;&lt;/tr&gt;&lt;tr style=&quot;border: 1px solid #98bf21&quot;&gt;&lt;td&gt;&lt;font style=&quot;font-size: 24px&quot;&gt;1&lt;/font&gt;&lt;/td&gt;&lt;td&gt;&lt;font style=&quot;font-size: 24px&quot;&gt;3&lt;/font&gt;&lt;/td&gt;&lt;td&gt;&lt;span style=&quot;font-size: 24px&quot;&gt;2&lt;/span&gt;&lt;/td&gt;&lt;/tr&gt;&lt;tr style=&quot;background-color: #eaf2d3 ; border: 1px solid #98bf21&quot;&gt;&lt;td&gt;&lt;span style=&quot;font-size: 24px&quot;&gt;0&lt;/span&gt;&lt;/td&gt;&lt;td&gt;&lt;font style=&quot;font-size: 24px&quot;&gt;-1&lt;/font&gt;&lt;/td&gt;&lt;td&gt;&lt;span style=&quot;font-size: 24px&quot;&gt;-4&lt;/span&gt;&lt;/td&gt;&lt;/tr&gt;&lt;tr&gt;&lt;td&gt;......&lt;/td&gt;&lt;td&gt;......&lt;/td&gt;&lt;td&gt;......&lt;/td&gt;&lt;/tr&gt;&lt;/tbody&gt;&lt;/table&gt;" style="text;html=1;strokeColor=#c0c0c0;fillColor=#ffffff;overflow=fill;rounded=0;align=center;" parent="1" vertex="1">
          <mxGeometry x="2747.42" y="4949.870000000001" width="280" height="310" as="geometry" />
        </mxCell>
        <mxCell id="VSAtMSxViYo08qL-0U2J-242" value="&lt;table border=&quot;1&quot; width=&quot;100%&quot; cellpadding=&quot;4&quot; style=&quot;width: 100% ; height: 100% ; border-collapse: collapse&quot;&gt;&lt;tbody style=&quot;font-size: 24px&quot;&gt;&lt;tr style=&quot;background-color: #a7c942 ; color: #ffffff ; border: 1px solid #98bf21&quot;&gt;&lt;th&gt;P1&lt;/th&gt;&lt;/tr&gt;&lt;tr style=&quot;border: 1px solid #98bf21&quot;&gt;&lt;td&gt;&lt;span style=&quot;font-size: 24px&quot;&gt;500&lt;/span&gt;&lt;/td&gt;&lt;/tr&gt;&lt;tr style=&quot;background-color: #eaf2d3 ; border: 1px solid #98bf21&quot;&gt;&lt;td&gt;400&lt;/td&gt;&lt;/tr&gt;&lt;tr style=&quot;border: 1px solid #98bf21&quot;&gt;&lt;td&gt;600&lt;/td&gt;&lt;/tr&gt;&lt;tr style=&quot;background-color: #eaf2d3 ; border: 1px solid #98bf21&quot;&gt;&lt;td&gt;380&lt;/td&gt;&lt;/tr&gt;&lt;tr&gt;&lt;td&gt;......&lt;/td&gt;&lt;/tr&gt;&lt;/tbody&gt;&lt;/table&gt;" style="text;html=1;strokeColor=#c0c0c0;fillColor=#ffffff;overflow=fill;rounded=0;align=center;" parent="1" vertex="1">
          <mxGeometry x="3027.42" y="4950.410000000001" width="110" height="310" as="geometry" />
        </mxCell>
        <mxCell id="VSAtMSxViYo08qL-0U2J-243" value="" style="shape=curlyBracket;whiteSpace=wrap;html=1;rounded=1;rotation=90;" parent="1" vertex="1">
          <mxGeometry x="3122.48" y="4852.58" width="38.49" height="132.5" as="geometry" />
        </mxCell>
        <mxCell id="VSAtMSxViYo08qL-0U2J-244" value="&lt;table border=&quot;1&quot; width=&quot;100%&quot; cellpadding=&quot;4&quot; style=&quot;width: 100% ; height: 100% ; border-collapse: collapse&quot;&gt;&lt;tbody&gt;&lt;tr style=&quot;background-color: #a7c942 ; color: #ffffff ; border: 1px solid #98bf21&quot;&gt;&lt;th&gt;&lt;span style=&quot;font-size: 24px&quot;&gt;I&lt;sub&gt;1&lt;/sub&gt;&lt;/span&gt;&lt;/th&gt;&lt;th&gt;&lt;span style=&quot;font-size: 24px&quot;&gt;I&lt;sub&gt;2&lt;/sub&gt;&lt;/span&gt;&lt;/th&gt;&lt;th&gt;&lt;span style=&quot;font-size: 24px;&quot;&gt;I&lt;sub&gt;3&lt;/sub&gt;&lt;/span&gt;&lt;/th&gt;&lt;/tr&gt;&lt;tr style=&quot;border: 1px solid #98bf21&quot;&gt;&lt;td&gt;&lt;span style=&quot;font-size: 24px;&quot;&gt;...&lt;/span&gt;&lt;/td&gt;&lt;td&gt;&lt;font style=&quot;font-size: 24px&quot;&gt;...&lt;/font&gt;&lt;/td&gt;&lt;td&gt;&lt;span style=&quot;font-size: 24px&quot;&gt;...&lt;/span&gt;&lt;/td&gt;&lt;/tr&gt;&lt;tr style=&quot;background-color: #eaf2d3 ; border: 1px solid #98bf21&quot;&gt;&lt;td&gt;&lt;font style=&quot;font-size: 24px&quot;&gt;...&lt;/font&gt;&lt;/td&gt;&lt;td&gt;&lt;font style=&quot;font-size: 24px&quot;&gt;...&lt;/font&gt;&lt;/td&gt;&lt;td&gt;&lt;span style=&quot;font-size: 24px&quot;&gt;...&lt;/span&gt;&lt;/td&gt;&lt;/tr&gt;&lt;tr style=&quot;border: 1px solid #98bf21&quot;&gt;&lt;td&gt;&lt;font style=&quot;font-size: 24px&quot;&gt;...&lt;/font&gt;&lt;/td&gt;&lt;td&gt;&lt;font style=&quot;font-size: 24px&quot;&gt;...&lt;/font&gt;&lt;/td&gt;&lt;td&gt;&lt;font style=&quot;font-size: 24px&quot;&gt;...&lt;/font&gt;&lt;/td&gt;&lt;/tr&gt;&lt;tr style=&quot;background-color: #eaf2d3 ; border: 1px solid #98bf21&quot;&gt;&lt;td&gt;&lt;font style=&quot;font-size: 24px&quot;&gt;...&lt;/font&gt;&lt;/td&gt;&lt;td&gt;&lt;font style=&quot;font-size: 24px&quot;&gt;...&lt;/font&gt;&lt;/td&gt;&lt;td&gt;&lt;font style=&quot;font-size: 24px&quot;&gt;...&lt;/font&gt;&lt;/td&gt;&lt;/tr&gt;&lt;tr&gt;&lt;td&gt;&lt;font style=&quot;font-size: 24px&quot;&gt;......&lt;/font&gt;&lt;/td&gt;&lt;td&gt;&lt;font style=&quot;font-size: 24px&quot;&gt;......&lt;/font&gt;&lt;/td&gt;&lt;td&gt;&lt;font style=&quot;font-size: 24px&quot;&gt;......&lt;/font&gt;&lt;/td&gt;&lt;/tr&gt;&lt;/tbody&gt;&lt;/table&gt;" style="text;html=1;strokeColor=#c0c0c0;fillColor=#ffffff;overflow=fill;rounded=0;align=center;" parent="1" vertex="1">
          <mxGeometry x="2077.42" y="4950.95" width="280" height="308.46" as="geometry" />
        </mxCell>
        <mxCell id="VSAtMSxViYo08qL-0U2J-245" value="" style="shape=curlyBracket;whiteSpace=wrap;html=1;rounded=1;rotation=90;" parent="1" vertex="1">
          <mxGeometry x="2864.14" y="4801.33" width="45.81" height="235" as="geometry" />
        </mxCell>
        <mxCell id="VSAtMSxViYo08qL-0U2J-246" value="&lt;font style=&quot;font-size: 24px;&quot;&gt;t+1 角度值&lt;/font&gt;" style="text;html=1;align=center;verticalAlign=middle;resizable=0;points=[];autosize=1;" parent="1" vertex="1">
          <mxGeometry x="2832.2700000000004" y="4866.33" width="130" height="20" as="geometry" />
        </mxCell>
        <mxCell id="VSAtMSxViYo08qL-0U2J-247" value="&lt;table border=&quot;1&quot; width=&quot;100%&quot; cellpadding=&quot;4&quot; style=&quot;width: 100% ; height: 100% ; border-collapse: collapse&quot;&gt;&lt;tbody style=&quot;font-size: 24px&quot;&gt;&lt;tr style=&quot;background-color: #a7c942 ; color: #ffffff ; border: 1px solid #98bf21&quot;&gt;&lt;th&gt;P2&lt;/th&gt;&lt;/tr&gt;&lt;tr style=&quot;border: 1px solid #98bf21&quot;&gt;&lt;td&gt;&lt;span style=&quot;font-size: 24px&quot;&gt;500&lt;/span&gt;&lt;/td&gt;&lt;/tr&gt;&lt;tr style=&quot;background-color: #eaf2d3 ; border: 1px solid #98bf21&quot;&gt;&lt;td&gt;400&lt;/td&gt;&lt;/tr&gt;&lt;tr style=&quot;border: 1px solid #98bf21&quot;&gt;&lt;td&gt;600&lt;/td&gt;&lt;/tr&gt;&lt;tr style=&quot;background-color: #eaf2d3 ; border: 1px solid #98bf21&quot;&gt;&lt;td&gt;380&lt;/td&gt;&lt;/tr&gt;&lt;tr&gt;&lt;td&gt;......&lt;/td&gt;&lt;/tr&gt;&lt;/tbody&gt;&lt;/table&gt;" style="text;html=1;strokeColor=#c0c0c0;fillColor=#ffffff;overflow=fill;rounded=0;align=center;" parent="1" vertex="1">
          <mxGeometry x="3137.42" y="4950.410000000001" width="110" height="310" as="geometry" />
        </mxCell>
        <mxCell id="VSAtMSxViYo08qL-0U2J-248" value="&lt;font style=&quot;font-size: 24px;&quot;&gt;发电量&lt;/font&gt;" style="text;html=1;align=center;verticalAlign=middle;resizable=0;points=[];autosize=1;" parent="1" vertex="1">
          <mxGeometry x="3100.04" y="4866.33" width="90" height="20" as="geometry" />
        </mxCell>
        <mxCell id="VSAtMSxViYo08qL-0U2J-249" value="&lt;table border=&quot;1&quot; width=&quot;100%&quot; cellpadding=&quot;4&quot; style=&quot;width: 100% ; height: 100% ; border-collapse: collapse&quot;&gt;&lt;tbody style=&quot;font-size: 24px&quot;&gt;&lt;tr style=&quot;background-color: #a7c942 ; color: #ffffff ; border: 1px solid #98bf21&quot;&gt;&lt;th&gt;I&lt;sub&gt;4&lt;/sub&gt;&lt;/th&gt;&lt;/tr&gt;&lt;tr style=&quot;border: 1px solid #98bf21&quot;&gt;&lt;td&gt;&lt;span style=&quot;font-size: 24px&quot;&gt;500&lt;/span&gt;&lt;/td&gt;&lt;/tr&gt;&lt;tr style=&quot;background-color: #eaf2d3 ; border: 1px solid #98bf21&quot;&gt;&lt;td&gt;400&lt;/td&gt;&lt;/tr&gt;&lt;tr style=&quot;border: 1px solid #98bf21&quot;&gt;&lt;td&gt;600&lt;/td&gt;&lt;/tr&gt;&lt;tr style=&quot;background-color: #eaf2d3 ; border: 1px solid #98bf21&quot;&gt;&lt;td&gt;380&lt;/td&gt;&lt;/tr&gt;&lt;tr&gt;&lt;td&gt;......&lt;/td&gt;&lt;/tr&gt;&lt;/tbody&gt;&lt;/table&gt;" style="text;html=1;strokeColor=#c0c0c0;fillColor=#ffffff;overflow=fill;rounded=0;align=center;" parent="1" vertex="1">
          <mxGeometry x="2357.42" y="4949.410000000001" width="110" height="310" as="geometry" />
        </mxCell>
        <mxCell id="E7yxNyFbDHK8ehahvayj-1" value="&lt;span style=&quot;font-size: 24px;&quot;&gt;Pareto 最优解&lt;/span&gt;" style="text;html=1;align=center;verticalAlign=middle;resizable=0;points=[];autosize=1;strokeColor=none;fillColor=none;" vertex="1" parent="1">
          <mxGeometry x="2980" y="5760" width="160" height="20" as="geometry" />
        </mxCell>
      </root>
    </mxGraphModel>
  </diagram>
</mxfile>
